%TF.GenerationSoftware,KiCad,Pcbnew,9.0.5*%
%TF.CreationDate,2026-04-18T15:14:27+03:00*%
%TF.ProjectId,msxdoc_proto,6d737864-6f63-45f7-9072-6f746f2e6b69,rev?*%
%TF.SameCoordinates,Original*%
%TF.FileFunction,Soldermask,Bot*%
%TF.FilePolarity,Negative*%
%FSLAX46Y46*%
G04 Gerber Fmt 4.6, Leading zero omitted, Abs format (unit mm)*
G04 Created by KiCad (PCBNEW 9.0.5) date 2026-04-18 15:14:27*
%MOMM*%
%LPD*%
G01*
G04 APERTURE LIST*
G04 Aperture macros list*
%AMRoundRect*
0 Rectangle with rounded corners*
0 $1 Rounding radius*
0 $2 $3 $4 $5 $6 $7 $8 $9 X,Y pos of 4 corners*
0 Add a 4 corners polygon primitive as box body*
4,1,4,$2,$3,$4,$5,$6,$7,$8,$9,$2,$3,0*
0 Add four circle primitives for the rounded corners*
1,1,$1+$1,$2,$3*
1,1,$1+$1,$4,$5*
1,1,$1+$1,$6,$7*
1,1,$1+$1,$8,$9*
0 Add four rect primitives between the rounded corners*
20,1,$1+$1,$2,$3,$4,$5,0*
20,1,$1+$1,$4,$5,$6,$7,0*
20,1,$1+$1,$6,$7,$8,$9,0*
20,1,$1+$1,$8,$9,$2,$3,0*%
G04 Aperture macros list end*
%ADD10C,0.850000*%
%ADD11O,2.100000X1.000000*%
%ADD12O,1.800000X1.000000*%
%ADD13C,2.230000*%
%ADD14C,1.800000*%
%ADD15C,2.000000*%
%ADD16RoundRect,0.317500X-0.317500X-4.127500X0.317500X-4.127500X0.317500X4.127500X-0.317500X4.127500X0*%
%ADD17C,0.425000*%
G04 APERTURE END LIST*
D10*
%TO.C,J3*%
X147852500Y-66500000D03*
X147852500Y-60710000D03*
D11*
X147352500Y-67920000D03*
X147352500Y-59280000D03*
D12*
X151532500Y-59280000D03*
X151532500Y-67920000D03*
%TD*%
D13*
%TO.C,J2*%
X94950000Y-63250000D03*
X94950000Y-87050000D03*
X118250000Y-63250000D03*
X118250000Y-87050000D03*
D14*
X102790000Y-62690000D03*
X105330000Y-62690000D03*
X107870000Y-62690000D03*
X110410000Y-62690000D03*
%TD*%
%TO.C,SW3*%
X131591250Y-48167500D03*
X127091250Y-48167500D03*
D15*
X125741250Y-50707500D03*
X132941250Y-50707500D03*
%TD*%
D16*
%TO.C,J1*%
X139750957Y-168149546D03*
X137210957Y-168149546D03*
X134670957Y-168149546D03*
X132130957Y-168149546D03*
X129590957Y-168149546D03*
X127050957Y-168149546D03*
X124510957Y-168149546D03*
X121970957Y-168149546D03*
X119430957Y-168149546D03*
X116890957Y-168149546D03*
X114350957Y-168149546D03*
X111810957Y-168149546D03*
X109270957Y-168149546D03*
X106730957Y-168149546D03*
X104190957Y-168149546D03*
X101650957Y-168149546D03*
X99110957Y-168149546D03*
X96570957Y-168149546D03*
X94030957Y-168149546D03*
X91490957Y-168149546D03*
X88950957Y-168149546D03*
X86410957Y-168149546D03*
X83870957Y-168149546D03*
X81330957Y-168149546D03*
X78790957Y-168149546D03*
%TD*%
D14*
%TO.C,SW1*%
X81900000Y-48200000D03*
X77400000Y-48200000D03*
D15*
X76050000Y-50740000D03*
X83250000Y-50740000D03*
%TD*%
D17*
%TO.C,U2*%
X104575000Y-111075000D03*
X104575000Y-111925000D03*
X104575000Y-112775000D03*
X105425000Y-111075000D03*
X105425000Y-111925000D03*
X105425000Y-112775000D03*
X106275000Y-111075000D03*
X106275000Y-111925000D03*
X106275000Y-112775000D03*
%TD*%
D14*
%TO.C,SW4*%
X145632500Y-48167500D03*
X141132500Y-48167500D03*
D15*
X139782500Y-50707500D03*
X146982500Y-50707500D03*
%TD*%
D14*
%TO.C,SW2*%
X117550000Y-48167500D03*
X113050000Y-48167500D03*
D15*
X111700000Y-50707500D03*
X118900000Y-50707500D03*
%TD*%
M02*
