M48
; DRILL file {KiCad 9.0.5} date 2026-04-18T15:18:09+0300
; FORMAT={-:-/ absolute / metric / decimal}
; #@! TF.CreationDate,2026-04-18T15:18:09+03:00
; #@! TF.GenerationSoftware,Kicad,Pcbnew,9.0.5
; #@! TF.FileFunction,Plated,1,2,PTH
FMAT,2
METRIC
; #@! TA.AperFunction,Plated,PTH,ComponentDrill
T1C0.212
; #@! TA.AperFunction,Plated,PTH,ViaDrill
T2C0.300
; #@! TA.AperFunction,Plated,PTH,ComponentDrill
T3C0.600
; #@! TA.AperFunction,Plated,PTH,ComponentDrill
T4C0.650
; #@! TA.AperFunction,Plated,PTH,ComponentDrill
T5C1.050
; #@! TA.AperFunction,Plated,PTH,ComponentDrill
T6C1.200
; #@! TA.AperFunction,Plated,PTH,ComponentDrill
T7C1.400
; #@! TA.AperFunction,Plated,PTH,ComponentDrill
T8C2.030
%
G90
G05
T1
X104.575Y-111.075
X104.575Y-111.925
X104.575Y-112.775
X105.425Y-111.075
X105.425Y-111.925
X105.425Y-112.775
X106.275Y-111.075
X106.275Y-111.925
X106.275Y-112.775
T2
X63.5Y-120.1
X64.6Y-73.4
X70.8Y-157.1
X71.6Y-120.2
X72.05Y-140.6
X75.45Y-145.35
X77.6Y-137.3
X77.75Y-106.25
X78.9Y-140.6
X79.45Y-121.35
X80.0Y-144.1
X80.9Y-102.95
X80.9Y-139.65
X81.9Y-137.3
X82.45Y-105.45
X82.5Y-134.0
X82.95Y-152.7
X83.4Y-151.0
X84.0Y-140.6
X84.55Y-122.05
X85.2Y-122.6
X85.8Y-155.0
X85.85Y-117.4
X86.55Y-118.0
X87.3Y-115.9
X87.8Y-154.9
X87.825Y-116.65
X87.9Y-113.8
X89.0Y-114.4
X89.125Y-115.2
X89.85Y-104.95
X89.85Y-135.2
X90.45Y-134.5
X90.5Y-103.85
X90.5Y-154.8
X91.05Y-136.0
X91.552Y-131.0
X92.0Y-132.4
X92.5Y-130.15
X92.6Y-154.8
X93.25Y-133.0
X93.688Y-129.788
X94.3Y-131.85
X94.764Y-127.5
X95.043Y-120.6
X95.1Y-108.8
X95.205Y-111.205
X95.545Y-133.645
X95.85Y-138.6
X96.047Y-119.55
X96.402Y-114.398
X96.6Y-136.503
X97.052Y-114.9
X97.1Y-116.0
X97.4Y-137.3
X97.5Y-106.198
X97.614Y-116.514
X97.69Y-115.252
X98.4Y-117.498
X98.401Y-114.249
X98.6Y-138.45
X99.1Y-140.6
X99.5Y-136.0
X100.3Y-117.9
X100.3Y-135.3
X100.4Y-105.55
X100.9Y-134.55
X101.2Y-103.1
X101.25Y-104.9
X101.498Y-121.85
X101.55Y-133.7
X101.9Y-113.75
X101.95Y-109.7
X102.0Y-122.5
X102.15Y-133.0
X102.25Y-103.8
X102.5Y-101.9
X102.7Y-132.45
X102.85Y-115.65
X102.95Y-111.7
X103.0Y-123.1
X103.2Y-131.85
X103.3Y-108.35
X103.7Y-122.3
X103.9Y-100.65
X104.3Y-119.1
X104.3Y-136.45
X104.323Y-118.249
X104.8Y-95.5
X104.85Y-115.65
X105.1Y-102.2
X105.2Y-125.8
X105.727Y-121.9
X106.0Y-115.05
X106.2Y-108.35
X106.3Y-96.3
X106.527Y-117.9
X106.55Y-132.9
X107.123Y-121.2
X107.25Y-118.209
X107.5Y-122.0
X107.65Y-109.1
X108.3Y-111.6
X108.5Y-90.9
X108.8Y-108.4
X108.85Y-103.0
X108.95Y-112.3
X108.95Y-115.5
X109.7Y-139.35
X109.8Y-124.5
X110.2Y-138.6
X110.3Y-90.0
X110.35Y-104.1
X110.75Y-151.0
X111.05Y-105.75
X111.252Y-136.65
X111.7Y-112.627
X111.7Y-138.0
X111.8Y-111.305
X111.8Y-154.3
X112.8Y-137.3
X112.975Y-110.023
X113.2Y-104.5
X113.3Y-117.7
X113.4Y-154.3
X113.6Y-125.2
X113.95Y-135.6
X114.3Y-140.5
X114.571Y-107.023
X114.6Y-110.778
X114.739Y-114.28
X114.9Y-132.95
X115.0Y-154.3
X115.2Y-125.4
X115.45Y-114.002
X115.477Y-135.1
X115.9Y-103.7
X115.9Y-117.7
X116.1Y-91.3
X116.2Y-90.1
X116.2Y-139.852
X116.2Y-154.3
X116.92Y-154.197
X117.0Y-104.8
X117.05Y-119.602
X117.1Y-109.0
X117.45Y-120.65
X117.7Y-155.9
X118.2Y-130.3
X118.3Y-156.9
X118.8Y-127.5
X118.9Y-112.5
X119.0Y-155.7
X119.4Y-129.9
X119.6Y-112.9
X120.1Y-110.05
X120.5Y-100.15
X120.5Y-111.3
X120.8Y-115.1
X121.4Y-126.2
X121.6Y-149.8
X122.8Y-102.8
X123.15Y-144.05
X126.3Y-145.2
X126.65Y-112.0
X127.3Y-103.302
X127.4Y-154.4
X127.9Y-137.3
X128.8Y-152.2
X129.5Y-140.4
X130.0Y-136.75
X130.175Y-150.9
X130.2Y-154.4
X130.85Y-137.9
X131.5Y-123.45
X132.15Y-122.55
X132.2Y-154.9
X132.75Y-119.1
X133.05Y-115.25
X133.45Y-118.25
X133.5Y-155.3
X134.05Y-139.35
X134.7Y-138.5
X135.75Y-151.55
X136.4Y-60.6
X136.4Y-66.6
X137.75Y-112.75
X137.75Y-150.3
X139.7Y-158.9
X140.05Y-141.5
X141.4Y-102.6
X141.8Y-116.15
X142.2Y-96.2
X142.85Y-136.1
X143.5Y-116.9
X143.6Y-94.7
X143.7Y-66.0
X144.4Y-61.4
X144.4Y-72.3
T4
X147.852Y-60.71
X147.852Y-66.5
T5
X102.79Y-62.69
X105.33Y-62.69
X107.87Y-62.69
X110.41Y-62.69
T6
X77.4Y-48.2
X81.9Y-48.2
X113.05Y-48.167
X117.55Y-48.167
X127.091Y-48.167
X131.591Y-48.167
X141.132Y-48.167
X145.632Y-48.167
T7
X76.05Y-50.74
X83.25Y-50.74
X111.7Y-50.707
X118.9Y-50.707
X125.741Y-50.707
X132.941Y-50.707
X139.782Y-50.707
X146.982Y-50.707
T8
X94.95Y-63.25
X94.95Y-87.05
X118.25Y-63.25
X118.25Y-87.05
T3
X146.803Y-59.28G85X147.902Y-59.28
G05
X146.803Y-67.92G85X147.902Y-67.92
G05
X151.133Y-59.28G85X151.932Y-59.28
G05
X151.133Y-67.92G85X151.932Y-67.92
G05
M30
