%TF.GenerationSoftware,KiCad,Pcbnew,9.0.5*%
%TF.CreationDate,2026-04-18T15:14:27+03:00*%
%TF.ProjectId,msxdoc_proto,6d737864-6f63-45f7-9072-6f746f2e6b69,rev?*%
%TF.SameCoordinates,Original*%
%TF.FileFunction,Legend,Top*%
%TF.FilePolarity,Positive*%
%FSLAX46Y46*%
G04 Gerber Fmt 4.6, Leading zero omitted, Abs format (unit mm)*
G04 Created by KiCad (PCBNEW 9.0.5) date 2026-04-18 15:14:27*
%MOMM*%
%LPD*%
G01*
G04 APERTURE LIST*
%ADD10C,0.150000*%
%ADD11C,0.120000*%
%ADD12C,0.060000*%
%ADD13C,0.250000*%
G04 APERTURE END LIST*
D10*
X144156666Y-105179819D02*
X144156666Y-105894104D01*
X144156666Y-105894104D02*
X144109047Y-106036961D01*
X144109047Y-106036961D02*
X144013809Y-106132200D01*
X144013809Y-106132200D02*
X143870952Y-106179819D01*
X143870952Y-106179819D02*
X143775714Y-106179819D01*
X145061428Y-105513152D02*
X145061428Y-106179819D01*
X144823333Y-105132200D02*
X144585238Y-105846485D01*
X144585238Y-105846485D02*
X145204285Y-105846485D01*
X148369819Y-57933333D02*
X149084104Y-57933333D01*
X149084104Y-57933333D02*
X149226961Y-57980952D01*
X149226961Y-57980952D02*
X149322200Y-58076190D01*
X149322200Y-58076190D02*
X149369819Y-58219047D01*
X149369819Y-58219047D02*
X149369819Y-58314285D01*
X148369819Y-57552380D02*
X148369819Y-56933333D01*
X148369819Y-56933333D02*
X148750771Y-57266666D01*
X148750771Y-57266666D02*
X148750771Y-57123809D01*
X148750771Y-57123809D02*
X148798390Y-57028571D01*
X148798390Y-57028571D02*
X148846009Y-56980952D01*
X148846009Y-56980952D02*
X148941247Y-56933333D01*
X148941247Y-56933333D02*
X149179342Y-56933333D01*
X149179342Y-56933333D02*
X149274580Y-56980952D01*
X149274580Y-56980952D02*
X149322200Y-57028571D01*
X149322200Y-57028571D02*
X149369819Y-57123809D01*
X149369819Y-57123809D02*
X149369819Y-57409523D01*
X149369819Y-57409523D02*
X149322200Y-57504761D01*
X149322200Y-57504761D02*
X149274580Y-57552380D01*
X107666666Y-63954819D02*
X107666666Y-64669104D01*
X107666666Y-64669104D02*
X107619047Y-64811961D01*
X107619047Y-64811961D02*
X107523809Y-64907200D01*
X107523809Y-64907200D02*
X107380952Y-64954819D01*
X107380952Y-64954819D02*
X107285714Y-64954819D01*
X108095238Y-64050057D02*
X108142857Y-64002438D01*
X108142857Y-64002438D02*
X108238095Y-63954819D01*
X108238095Y-63954819D02*
X108476190Y-63954819D01*
X108476190Y-63954819D02*
X108571428Y-64002438D01*
X108571428Y-64002438D02*
X108619047Y-64050057D01*
X108619047Y-64050057D02*
X108666666Y-64145295D01*
X108666666Y-64145295D02*
X108666666Y-64240533D01*
X108666666Y-64240533D02*
X108619047Y-64383390D01*
X108619047Y-64383390D02*
X108047619Y-64954819D01*
X108047619Y-64954819D02*
X108666666Y-64954819D01*
X121324819Y-100841666D02*
X120848628Y-101174999D01*
X121324819Y-101413094D02*
X120324819Y-101413094D01*
X120324819Y-101413094D02*
X120324819Y-101032142D01*
X120324819Y-101032142D02*
X120372438Y-100936904D01*
X120372438Y-100936904D02*
X120420057Y-100889285D01*
X120420057Y-100889285D02*
X120515295Y-100841666D01*
X120515295Y-100841666D02*
X120658152Y-100841666D01*
X120658152Y-100841666D02*
X120753390Y-100889285D01*
X120753390Y-100889285D02*
X120801009Y-100936904D01*
X120801009Y-100936904D02*
X120848628Y-101032142D01*
X120848628Y-101032142D02*
X120848628Y-101413094D01*
X121324819Y-100365475D02*
X121324819Y-100174999D01*
X121324819Y-100174999D02*
X121277200Y-100079761D01*
X121277200Y-100079761D02*
X121229580Y-100032142D01*
X121229580Y-100032142D02*
X121086723Y-99936904D01*
X121086723Y-99936904D02*
X120896247Y-99889285D01*
X120896247Y-99889285D02*
X120515295Y-99889285D01*
X120515295Y-99889285D02*
X120420057Y-99936904D01*
X120420057Y-99936904D02*
X120372438Y-99984523D01*
X120372438Y-99984523D02*
X120324819Y-100079761D01*
X120324819Y-100079761D02*
X120324819Y-100270237D01*
X120324819Y-100270237D02*
X120372438Y-100365475D01*
X120372438Y-100365475D02*
X120420057Y-100413094D01*
X120420057Y-100413094D02*
X120515295Y-100460713D01*
X120515295Y-100460713D02*
X120753390Y-100460713D01*
X120753390Y-100460713D02*
X120848628Y-100413094D01*
X120848628Y-100413094D02*
X120896247Y-100365475D01*
X120896247Y-100365475D02*
X120943866Y-100270237D01*
X120943866Y-100270237D02*
X120943866Y-100079761D01*
X120943866Y-100079761D02*
X120896247Y-99984523D01*
X120896247Y-99984523D02*
X120848628Y-99936904D01*
X120848628Y-99936904D02*
X120753390Y-99889285D01*
X121907142Y-110224819D02*
X121573809Y-109748628D01*
X121335714Y-110224819D02*
X121335714Y-109224819D01*
X121335714Y-109224819D02*
X121716666Y-109224819D01*
X121716666Y-109224819D02*
X121811904Y-109272438D01*
X121811904Y-109272438D02*
X121859523Y-109320057D01*
X121859523Y-109320057D02*
X121907142Y-109415295D01*
X121907142Y-109415295D02*
X121907142Y-109558152D01*
X121907142Y-109558152D02*
X121859523Y-109653390D01*
X121859523Y-109653390D02*
X121811904Y-109701009D01*
X121811904Y-109701009D02*
X121716666Y-109748628D01*
X121716666Y-109748628D02*
X121335714Y-109748628D01*
X122859523Y-110224819D02*
X122288095Y-110224819D01*
X122573809Y-110224819D02*
X122573809Y-109224819D01*
X122573809Y-109224819D02*
X122478571Y-109367676D01*
X122478571Y-109367676D02*
X122383333Y-109462914D01*
X122383333Y-109462914D02*
X122288095Y-109510533D01*
X123335714Y-110224819D02*
X123526190Y-110224819D01*
X123526190Y-110224819D02*
X123621428Y-110177200D01*
X123621428Y-110177200D02*
X123669047Y-110129580D01*
X123669047Y-110129580D02*
X123764285Y-109986723D01*
X123764285Y-109986723D02*
X123811904Y-109796247D01*
X123811904Y-109796247D02*
X123811904Y-109415295D01*
X123811904Y-109415295D02*
X123764285Y-109320057D01*
X123764285Y-109320057D02*
X123716666Y-109272438D01*
X123716666Y-109272438D02*
X123621428Y-109224819D01*
X123621428Y-109224819D02*
X123430952Y-109224819D01*
X123430952Y-109224819D02*
X123335714Y-109272438D01*
X123335714Y-109272438D02*
X123288095Y-109320057D01*
X123288095Y-109320057D02*
X123240476Y-109415295D01*
X123240476Y-109415295D02*
X123240476Y-109653390D01*
X123240476Y-109653390D02*
X123288095Y-109748628D01*
X123288095Y-109748628D02*
X123335714Y-109796247D01*
X123335714Y-109796247D02*
X123430952Y-109843866D01*
X123430952Y-109843866D02*
X123621428Y-109843866D01*
X123621428Y-109843866D02*
X123716666Y-109796247D01*
X123716666Y-109796247D02*
X123764285Y-109748628D01*
X123764285Y-109748628D02*
X123811904Y-109653390D01*
X106524819Y-124467857D02*
X106048628Y-124801190D01*
X106524819Y-125039285D02*
X105524819Y-125039285D01*
X105524819Y-125039285D02*
X105524819Y-124658333D01*
X105524819Y-124658333D02*
X105572438Y-124563095D01*
X105572438Y-124563095D02*
X105620057Y-124515476D01*
X105620057Y-124515476D02*
X105715295Y-124467857D01*
X105715295Y-124467857D02*
X105858152Y-124467857D01*
X105858152Y-124467857D02*
X105953390Y-124515476D01*
X105953390Y-124515476D02*
X106001009Y-124563095D01*
X106001009Y-124563095D02*
X106048628Y-124658333D01*
X106048628Y-124658333D02*
X106048628Y-125039285D01*
X106524819Y-123515476D02*
X106524819Y-124086904D01*
X106524819Y-123801190D02*
X105524819Y-123801190D01*
X105524819Y-123801190D02*
X105667676Y-123896428D01*
X105667676Y-123896428D02*
X105762914Y-123991666D01*
X105762914Y-123991666D02*
X105810533Y-124086904D01*
X105524819Y-122610714D02*
X105524819Y-123086904D01*
X105524819Y-123086904D02*
X106001009Y-123134523D01*
X106001009Y-123134523D02*
X105953390Y-123086904D01*
X105953390Y-123086904D02*
X105905771Y-122991666D01*
X105905771Y-122991666D02*
X105905771Y-122753571D01*
X105905771Y-122753571D02*
X105953390Y-122658333D01*
X105953390Y-122658333D02*
X106001009Y-122610714D01*
X106001009Y-122610714D02*
X106096247Y-122563095D01*
X106096247Y-122563095D02*
X106334342Y-122563095D01*
X106334342Y-122563095D02*
X106429580Y-122610714D01*
X106429580Y-122610714D02*
X106477200Y-122658333D01*
X106477200Y-122658333D02*
X106524819Y-122753571D01*
X106524819Y-122753571D02*
X106524819Y-122991666D01*
X106524819Y-122991666D02*
X106477200Y-123086904D01*
X106477200Y-123086904D02*
X106429580Y-123134523D01*
X68654819Y-117638094D02*
X67654819Y-117638094D01*
X67654819Y-117638094D02*
X67654819Y-117399999D01*
X67654819Y-117399999D02*
X67702438Y-117257142D01*
X67702438Y-117257142D02*
X67797676Y-117161904D01*
X67797676Y-117161904D02*
X67892914Y-117114285D01*
X67892914Y-117114285D02*
X68083390Y-117066666D01*
X68083390Y-117066666D02*
X68226247Y-117066666D01*
X68226247Y-117066666D02*
X68416723Y-117114285D01*
X68416723Y-117114285D02*
X68511961Y-117161904D01*
X68511961Y-117161904D02*
X68607200Y-117257142D01*
X68607200Y-117257142D02*
X68654819Y-117399999D01*
X68654819Y-117399999D02*
X68654819Y-117638094D01*
X68654819Y-116114285D02*
X68654819Y-116685713D01*
X68654819Y-116399999D02*
X67654819Y-116399999D01*
X67654819Y-116399999D02*
X67797676Y-116495237D01*
X67797676Y-116495237D02*
X67892914Y-116590475D01*
X67892914Y-116590475D02*
X67940533Y-116685713D01*
X67409580Y-109116666D02*
X67457200Y-109164285D01*
X67457200Y-109164285D02*
X67504819Y-109307142D01*
X67504819Y-109307142D02*
X67504819Y-109402380D01*
X67504819Y-109402380D02*
X67457200Y-109545237D01*
X67457200Y-109545237D02*
X67361961Y-109640475D01*
X67361961Y-109640475D02*
X67266723Y-109688094D01*
X67266723Y-109688094D02*
X67076247Y-109735713D01*
X67076247Y-109735713D02*
X66933390Y-109735713D01*
X66933390Y-109735713D02*
X66742914Y-109688094D01*
X66742914Y-109688094D02*
X66647676Y-109640475D01*
X66647676Y-109640475D02*
X66552438Y-109545237D01*
X66552438Y-109545237D02*
X66504819Y-109402380D01*
X66504819Y-109402380D02*
X66504819Y-109307142D01*
X66504819Y-109307142D02*
X66552438Y-109164285D01*
X66552438Y-109164285D02*
X66600057Y-109116666D01*
X67504819Y-108164285D02*
X67504819Y-108735713D01*
X67504819Y-108449999D02*
X66504819Y-108449999D01*
X66504819Y-108449999D02*
X66647676Y-108545237D01*
X66647676Y-108545237D02*
X66742914Y-108640475D01*
X66742914Y-108640475D02*
X66790533Y-108735713D01*
X128203750Y-53547200D02*
X128346607Y-53594819D01*
X128346607Y-53594819D02*
X128584702Y-53594819D01*
X128584702Y-53594819D02*
X128679940Y-53547200D01*
X128679940Y-53547200D02*
X128727559Y-53499580D01*
X128727559Y-53499580D02*
X128775178Y-53404342D01*
X128775178Y-53404342D02*
X128775178Y-53309104D01*
X128775178Y-53309104D02*
X128727559Y-53213866D01*
X128727559Y-53213866D02*
X128679940Y-53166247D01*
X128679940Y-53166247D02*
X128584702Y-53118628D01*
X128584702Y-53118628D02*
X128394226Y-53071009D01*
X128394226Y-53071009D02*
X128298988Y-53023390D01*
X128298988Y-53023390D02*
X128251369Y-52975771D01*
X128251369Y-52975771D02*
X128203750Y-52880533D01*
X128203750Y-52880533D02*
X128203750Y-52785295D01*
X128203750Y-52785295D02*
X128251369Y-52690057D01*
X128251369Y-52690057D02*
X128298988Y-52642438D01*
X128298988Y-52642438D02*
X128394226Y-52594819D01*
X128394226Y-52594819D02*
X128632321Y-52594819D01*
X128632321Y-52594819D02*
X128775178Y-52642438D01*
X129108512Y-52594819D02*
X129346607Y-53594819D01*
X129346607Y-53594819D02*
X129537083Y-52880533D01*
X129537083Y-52880533D02*
X129727559Y-53594819D01*
X129727559Y-53594819D02*
X129965655Y-52594819D01*
X130251369Y-52594819D02*
X130870416Y-52594819D01*
X130870416Y-52594819D02*
X130537083Y-52975771D01*
X130537083Y-52975771D02*
X130679940Y-52975771D01*
X130679940Y-52975771D02*
X130775178Y-53023390D01*
X130775178Y-53023390D02*
X130822797Y-53071009D01*
X130822797Y-53071009D02*
X130870416Y-53166247D01*
X130870416Y-53166247D02*
X130870416Y-53404342D01*
X130870416Y-53404342D02*
X130822797Y-53499580D01*
X130822797Y-53499580D02*
X130775178Y-53547200D01*
X130775178Y-53547200D02*
X130679940Y-53594819D01*
X130679940Y-53594819D02*
X130394226Y-53594819D01*
X130394226Y-53594819D02*
X130298988Y-53547200D01*
X130298988Y-53547200D02*
X130251369Y-53499580D01*
X133808333Y-65824819D02*
X133475000Y-65348628D01*
X133236905Y-65824819D02*
X133236905Y-64824819D01*
X133236905Y-64824819D02*
X133617857Y-64824819D01*
X133617857Y-64824819D02*
X133713095Y-64872438D01*
X133713095Y-64872438D02*
X133760714Y-64920057D01*
X133760714Y-64920057D02*
X133808333Y-65015295D01*
X133808333Y-65015295D02*
X133808333Y-65158152D01*
X133808333Y-65158152D02*
X133760714Y-65253390D01*
X133760714Y-65253390D02*
X133713095Y-65301009D01*
X133713095Y-65301009D02*
X133617857Y-65348628D01*
X133617857Y-65348628D02*
X133236905Y-65348628D01*
X134141667Y-64824819D02*
X134808333Y-64824819D01*
X134808333Y-64824819D02*
X134379762Y-65824819D01*
X69900595Y-108554819D02*
X69900595Y-109364342D01*
X69900595Y-109364342D02*
X69948214Y-109459580D01*
X69948214Y-109459580D02*
X69995833Y-109507200D01*
X69995833Y-109507200D02*
X70091071Y-109554819D01*
X70091071Y-109554819D02*
X70281547Y-109554819D01*
X70281547Y-109554819D02*
X70376785Y-109507200D01*
X70376785Y-109507200D02*
X70424404Y-109459580D01*
X70424404Y-109459580D02*
X70472023Y-109364342D01*
X70472023Y-109364342D02*
X70472023Y-108554819D01*
X71472023Y-109554819D02*
X70900595Y-109554819D01*
X71186309Y-109554819D02*
X71186309Y-108554819D01*
X71186309Y-108554819D02*
X71091071Y-108697676D01*
X71091071Y-108697676D02*
X70995833Y-108792914D01*
X70995833Y-108792914D02*
X70900595Y-108840533D01*
X139117261Y-149700057D02*
X139022023Y-149652438D01*
X139022023Y-149652438D02*
X138926785Y-149557200D01*
X138926785Y-149557200D02*
X138783928Y-149414342D01*
X138783928Y-149414342D02*
X138688690Y-149366723D01*
X138688690Y-149366723D02*
X138593452Y-149366723D01*
X138641071Y-149604819D02*
X138545833Y-149557200D01*
X138545833Y-149557200D02*
X138450595Y-149461961D01*
X138450595Y-149461961D02*
X138402976Y-149271485D01*
X138402976Y-149271485D02*
X138402976Y-148938152D01*
X138402976Y-148938152D02*
X138450595Y-148747676D01*
X138450595Y-148747676D02*
X138545833Y-148652438D01*
X138545833Y-148652438D02*
X138641071Y-148604819D01*
X138641071Y-148604819D02*
X138831547Y-148604819D01*
X138831547Y-148604819D02*
X138926785Y-148652438D01*
X138926785Y-148652438D02*
X139022023Y-148747676D01*
X139022023Y-148747676D02*
X139069642Y-148938152D01*
X139069642Y-148938152D02*
X139069642Y-149271485D01*
X139069642Y-149271485D02*
X139022023Y-149461961D01*
X139022023Y-149461961D02*
X138926785Y-149557200D01*
X138926785Y-149557200D02*
X138831547Y-149604819D01*
X138831547Y-149604819D02*
X138641071Y-149604819D01*
X140022023Y-149604819D02*
X139450595Y-149604819D01*
X139736309Y-149604819D02*
X139736309Y-148604819D01*
X139736309Y-148604819D02*
X139641071Y-148747676D01*
X139641071Y-148747676D02*
X139545833Y-148842914D01*
X139545833Y-148842914D02*
X139450595Y-148890533D01*
X108254819Y-99242857D02*
X107778628Y-99576190D01*
X108254819Y-99814285D02*
X107254819Y-99814285D01*
X107254819Y-99814285D02*
X107254819Y-99433333D01*
X107254819Y-99433333D02*
X107302438Y-99338095D01*
X107302438Y-99338095D02*
X107350057Y-99290476D01*
X107350057Y-99290476D02*
X107445295Y-99242857D01*
X107445295Y-99242857D02*
X107588152Y-99242857D01*
X107588152Y-99242857D02*
X107683390Y-99290476D01*
X107683390Y-99290476D02*
X107731009Y-99338095D01*
X107731009Y-99338095D02*
X107778628Y-99433333D01*
X107778628Y-99433333D02*
X107778628Y-99814285D01*
X107350057Y-98861904D02*
X107302438Y-98814285D01*
X107302438Y-98814285D02*
X107254819Y-98719047D01*
X107254819Y-98719047D02*
X107254819Y-98480952D01*
X107254819Y-98480952D02*
X107302438Y-98385714D01*
X107302438Y-98385714D02*
X107350057Y-98338095D01*
X107350057Y-98338095D02*
X107445295Y-98290476D01*
X107445295Y-98290476D02*
X107540533Y-98290476D01*
X107540533Y-98290476D02*
X107683390Y-98338095D01*
X107683390Y-98338095D02*
X108254819Y-98909523D01*
X108254819Y-98909523D02*
X108254819Y-98290476D01*
X107350057Y-97909523D02*
X107302438Y-97861904D01*
X107302438Y-97861904D02*
X107254819Y-97766666D01*
X107254819Y-97766666D02*
X107254819Y-97528571D01*
X107254819Y-97528571D02*
X107302438Y-97433333D01*
X107302438Y-97433333D02*
X107350057Y-97385714D01*
X107350057Y-97385714D02*
X107445295Y-97338095D01*
X107445295Y-97338095D02*
X107540533Y-97338095D01*
X107540533Y-97338095D02*
X107683390Y-97385714D01*
X107683390Y-97385714D02*
X108254819Y-97957142D01*
X108254819Y-97957142D02*
X108254819Y-97338095D01*
X104433333Y-55054819D02*
X104100000Y-54578628D01*
X103861905Y-55054819D02*
X103861905Y-54054819D01*
X103861905Y-54054819D02*
X104242857Y-54054819D01*
X104242857Y-54054819D02*
X104338095Y-54102438D01*
X104338095Y-54102438D02*
X104385714Y-54150057D01*
X104385714Y-54150057D02*
X104433333Y-54245295D01*
X104433333Y-54245295D02*
X104433333Y-54388152D01*
X104433333Y-54388152D02*
X104385714Y-54483390D01*
X104385714Y-54483390D02*
X104338095Y-54531009D01*
X104338095Y-54531009D02*
X104242857Y-54578628D01*
X104242857Y-54578628D02*
X103861905Y-54578628D01*
X105290476Y-54054819D02*
X105100000Y-54054819D01*
X105100000Y-54054819D02*
X105004762Y-54102438D01*
X105004762Y-54102438D02*
X104957143Y-54150057D01*
X104957143Y-54150057D02*
X104861905Y-54292914D01*
X104861905Y-54292914D02*
X104814286Y-54483390D01*
X104814286Y-54483390D02*
X104814286Y-54864342D01*
X104814286Y-54864342D02*
X104861905Y-54959580D01*
X104861905Y-54959580D02*
X104909524Y-55007200D01*
X104909524Y-55007200D02*
X105004762Y-55054819D01*
X105004762Y-55054819D02*
X105195238Y-55054819D01*
X105195238Y-55054819D02*
X105290476Y-55007200D01*
X105290476Y-55007200D02*
X105338095Y-54959580D01*
X105338095Y-54959580D02*
X105385714Y-54864342D01*
X105385714Y-54864342D02*
X105385714Y-54626247D01*
X105385714Y-54626247D02*
X105338095Y-54531009D01*
X105338095Y-54531009D02*
X105290476Y-54483390D01*
X105290476Y-54483390D02*
X105195238Y-54435771D01*
X105195238Y-54435771D02*
X105004762Y-54435771D01*
X105004762Y-54435771D02*
X104909524Y-54483390D01*
X104909524Y-54483390D02*
X104861905Y-54531009D01*
X104861905Y-54531009D02*
X104814286Y-54626247D01*
X108058333Y-127839580D02*
X108010714Y-127887200D01*
X108010714Y-127887200D02*
X107867857Y-127934819D01*
X107867857Y-127934819D02*
X107772619Y-127934819D01*
X107772619Y-127934819D02*
X107629762Y-127887200D01*
X107629762Y-127887200D02*
X107534524Y-127791961D01*
X107534524Y-127791961D02*
X107486905Y-127696723D01*
X107486905Y-127696723D02*
X107439286Y-127506247D01*
X107439286Y-127506247D02*
X107439286Y-127363390D01*
X107439286Y-127363390D02*
X107486905Y-127172914D01*
X107486905Y-127172914D02*
X107534524Y-127077676D01*
X107534524Y-127077676D02*
X107629762Y-126982438D01*
X107629762Y-126982438D02*
X107772619Y-126934819D01*
X107772619Y-126934819D02*
X107867857Y-126934819D01*
X107867857Y-126934819D02*
X108010714Y-126982438D01*
X108010714Y-126982438D02*
X108058333Y-127030057D01*
X108963095Y-126934819D02*
X108486905Y-126934819D01*
X108486905Y-126934819D02*
X108439286Y-127411009D01*
X108439286Y-127411009D02*
X108486905Y-127363390D01*
X108486905Y-127363390D02*
X108582143Y-127315771D01*
X108582143Y-127315771D02*
X108820238Y-127315771D01*
X108820238Y-127315771D02*
X108915476Y-127363390D01*
X108915476Y-127363390D02*
X108963095Y-127411009D01*
X108963095Y-127411009D02*
X109010714Y-127506247D01*
X109010714Y-127506247D02*
X109010714Y-127744342D01*
X109010714Y-127744342D02*
X108963095Y-127839580D01*
X108963095Y-127839580D02*
X108915476Y-127887200D01*
X108915476Y-127887200D02*
X108820238Y-127934819D01*
X108820238Y-127934819D02*
X108582143Y-127934819D01*
X108582143Y-127934819D02*
X108486905Y-127887200D01*
X108486905Y-127887200D02*
X108439286Y-127839580D01*
X129207142Y-128109819D02*
X128873809Y-127633628D01*
X128635714Y-128109819D02*
X128635714Y-127109819D01*
X128635714Y-127109819D02*
X129016666Y-127109819D01*
X129016666Y-127109819D02*
X129111904Y-127157438D01*
X129111904Y-127157438D02*
X129159523Y-127205057D01*
X129159523Y-127205057D02*
X129207142Y-127300295D01*
X129207142Y-127300295D02*
X129207142Y-127443152D01*
X129207142Y-127443152D02*
X129159523Y-127538390D01*
X129159523Y-127538390D02*
X129111904Y-127586009D01*
X129111904Y-127586009D02*
X129016666Y-127633628D01*
X129016666Y-127633628D02*
X128635714Y-127633628D01*
X130159523Y-128109819D02*
X129588095Y-128109819D01*
X129873809Y-128109819D02*
X129873809Y-127109819D01*
X129873809Y-127109819D02*
X129778571Y-127252676D01*
X129778571Y-127252676D02*
X129683333Y-127347914D01*
X129683333Y-127347914D02*
X129588095Y-127395533D01*
X131016666Y-127109819D02*
X130826190Y-127109819D01*
X130826190Y-127109819D02*
X130730952Y-127157438D01*
X130730952Y-127157438D02*
X130683333Y-127205057D01*
X130683333Y-127205057D02*
X130588095Y-127347914D01*
X130588095Y-127347914D02*
X130540476Y-127538390D01*
X130540476Y-127538390D02*
X130540476Y-127919342D01*
X130540476Y-127919342D02*
X130588095Y-128014580D01*
X130588095Y-128014580D02*
X130635714Y-128062200D01*
X130635714Y-128062200D02*
X130730952Y-128109819D01*
X130730952Y-128109819D02*
X130921428Y-128109819D01*
X130921428Y-128109819D02*
X131016666Y-128062200D01*
X131016666Y-128062200D02*
X131064285Y-128014580D01*
X131064285Y-128014580D02*
X131111904Y-127919342D01*
X131111904Y-127919342D02*
X131111904Y-127681247D01*
X131111904Y-127681247D02*
X131064285Y-127586009D01*
X131064285Y-127586009D02*
X131016666Y-127538390D01*
X131016666Y-127538390D02*
X130921428Y-127490771D01*
X130921428Y-127490771D02*
X130730952Y-127490771D01*
X130730952Y-127490771D02*
X130635714Y-127538390D01*
X130635714Y-127538390D02*
X130588095Y-127586009D01*
X130588095Y-127586009D02*
X130540476Y-127681247D01*
X124854819Y-119200594D02*
X123854819Y-119200594D01*
X123854819Y-119200594D02*
X123854819Y-118962499D01*
X123854819Y-118962499D02*
X123902438Y-118819642D01*
X123902438Y-118819642D02*
X123997676Y-118724404D01*
X123997676Y-118724404D02*
X124092914Y-118676785D01*
X124092914Y-118676785D02*
X124283390Y-118629166D01*
X124283390Y-118629166D02*
X124426247Y-118629166D01*
X124426247Y-118629166D02*
X124616723Y-118676785D01*
X124616723Y-118676785D02*
X124711961Y-118724404D01*
X124711961Y-118724404D02*
X124807200Y-118819642D01*
X124807200Y-118819642D02*
X124854819Y-118962499D01*
X124854819Y-118962499D02*
X124854819Y-119200594D01*
X124188152Y-117772023D02*
X124854819Y-117772023D01*
X123807200Y-118010118D02*
X124521485Y-118248213D01*
X124521485Y-118248213D02*
X124521485Y-117629166D01*
X113607142Y-104709580D02*
X113559523Y-104757200D01*
X113559523Y-104757200D02*
X113416666Y-104804819D01*
X113416666Y-104804819D02*
X113321428Y-104804819D01*
X113321428Y-104804819D02*
X113178571Y-104757200D01*
X113178571Y-104757200D02*
X113083333Y-104661961D01*
X113083333Y-104661961D02*
X113035714Y-104566723D01*
X113035714Y-104566723D02*
X112988095Y-104376247D01*
X112988095Y-104376247D02*
X112988095Y-104233390D01*
X112988095Y-104233390D02*
X113035714Y-104042914D01*
X113035714Y-104042914D02*
X113083333Y-103947676D01*
X113083333Y-103947676D02*
X113178571Y-103852438D01*
X113178571Y-103852438D02*
X113321428Y-103804819D01*
X113321428Y-103804819D02*
X113416666Y-103804819D01*
X113416666Y-103804819D02*
X113559523Y-103852438D01*
X113559523Y-103852438D02*
X113607142Y-103900057D01*
X114559523Y-104804819D02*
X113988095Y-104804819D01*
X114273809Y-104804819D02*
X114273809Y-103804819D01*
X114273809Y-103804819D02*
X114178571Y-103947676D01*
X114178571Y-103947676D02*
X114083333Y-104042914D01*
X114083333Y-104042914D02*
X113988095Y-104090533D01*
X115130952Y-104233390D02*
X115035714Y-104185771D01*
X115035714Y-104185771D02*
X114988095Y-104138152D01*
X114988095Y-104138152D02*
X114940476Y-104042914D01*
X114940476Y-104042914D02*
X114940476Y-103995295D01*
X114940476Y-103995295D02*
X114988095Y-103900057D01*
X114988095Y-103900057D02*
X115035714Y-103852438D01*
X115035714Y-103852438D02*
X115130952Y-103804819D01*
X115130952Y-103804819D02*
X115321428Y-103804819D01*
X115321428Y-103804819D02*
X115416666Y-103852438D01*
X115416666Y-103852438D02*
X115464285Y-103900057D01*
X115464285Y-103900057D02*
X115511904Y-103995295D01*
X115511904Y-103995295D02*
X115511904Y-104042914D01*
X115511904Y-104042914D02*
X115464285Y-104138152D01*
X115464285Y-104138152D02*
X115416666Y-104185771D01*
X115416666Y-104185771D02*
X115321428Y-104233390D01*
X115321428Y-104233390D02*
X115130952Y-104233390D01*
X115130952Y-104233390D02*
X115035714Y-104281009D01*
X115035714Y-104281009D02*
X114988095Y-104328628D01*
X114988095Y-104328628D02*
X114940476Y-104423866D01*
X114940476Y-104423866D02*
X114940476Y-104614342D01*
X114940476Y-104614342D02*
X114988095Y-104709580D01*
X114988095Y-104709580D02*
X115035714Y-104757200D01*
X115035714Y-104757200D02*
X115130952Y-104804819D01*
X115130952Y-104804819D02*
X115321428Y-104804819D01*
X115321428Y-104804819D02*
X115416666Y-104757200D01*
X115416666Y-104757200D02*
X115464285Y-104709580D01*
X115464285Y-104709580D02*
X115511904Y-104614342D01*
X115511904Y-104614342D02*
X115511904Y-104423866D01*
X115511904Y-104423866D02*
X115464285Y-104328628D01*
X115464285Y-104328628D02*
X115416666Y-104281009D01*
X115416666Y-104281009D02*
X115321428Y-104233390D01*
X78334167Y-53839700D02*
X78477024Y-53887319D01*
X78477024Y-53887319D02*
X78715119Y-53887319D01*
X78715119Y-53887319D02*
X78810357Y-53839700D01*
X78810357Y-53839700D02*
X78857976Y-53792080D01*
X78857976Y-53792080D02*
X78905595Y-53696842D01*
X78905595Y-53696842D02*
X78905595Y-53601604D01*
X78905595Y-53601604D02*
X78857976Y-53506366D01*
X78857976Y-53506366D02*
X78810357Y-53458747D01*
X78810357Y-53458747D02*
X78715119Y-53411128D01*
X78715119Y-53411128D02*
X78524643Y-53363509D01*
X78524643Y-53363509D02*
X78429405Y-53315890D01*
X78429405Y-53315890D02*
X78381786Y-53268271D01*
X78381786Y-53268271D02*
X78334167Y-53173033D01*
X78334167Y-53173033D02*
X78334167Y-53077795D01*
X78334167Y-53077795D02*
X78381786Y-52982557D01*
X78381786Y-52982557D02*
X78429405Y-52934938D01*
X78429405Y-52934938D02*
X78524643Y-52887319D01*
X78524643Y-52887319D02*
X78762738Y-52887319D01*
X78762738Y-52887319D02*
X78905595Y-52934938D01*
X79238929Y-52887319D02*
X79477024Y-53887319D01*
X79477024Y-53887319D02*
X79667500Y-53173033D01*
X79667500Y-53173033D02*
X79857976Y-53887319D01*
X79857976Y-53887319D02*
X80096072Y-52887319D01*
X81000833Y-53887319D02*
X80429405Y-53887319D01*
X80715119Y-53887319D02*
X80715119Y-52887319D01*
X80715119Y-52887319D02*
X80619881Y-53030176D01*
X80619881Y-53030176D02*
X80524643Y-53125414D01*
X80524643Y-53125414D02*
X80429405Y-53173033D01*
X111854819Y-146724404D02*
X112664342Y-146724404D01*
X112664342Y-146724404D02*
X112759580Y-146676785D01*
X112759580Y-146676785D02*
X112807200Y-146629166D01*
X112807200Y-146629166D02*
X112854819Y-146533928D01*
X112854819Y-146533928D02*
X112854819Y-146343452D01*
X112854819Y-146343452D02*
X112807200Y-146248214D01*
X112807200Y-146248214D02*
X112759580Y-146200595D01*
X112759580Y-146200595D02*
X112664342Y-146152976D01*
X112664342Y-146152976D02*
X111854819Y-146152976D01*
X112188152Y-145248214D02*
X112854819Y-145248214D01*
X111807200Y-145486309D02*
X112521485Y-145724404D01*
X112521485Y-145724404D02*
X112521485Y-145105357D01*
X78558333Y-99074819D02*
X78225000Y-98598628D01*
X77986905Y-99074819D02*
X77986905Y-98074819D01*
X77986905Y-98074819D02*
X78367857Y-98074819D01*
X78367857Y-98074819D02*
X78463095Y-98122438D01*
X78463095Y-98122438D02*
X78510714Y-98170057D01*
X78510714Y-98170057D02*
X78558333Y-98265295D01*
X78558333Y-98265295D02*
X78558333Y-98408152D01*
X78558333Y-98408152D02*
X78510714Y-98503390D01*
X78510714Y-98503390D02*
X78463095Y-98551009D01*
X78463095Y-98551009D02*
X78367857Y-98598628D01*
X78367857Y-98598628D02*
X77986905Y-98598628D01*
X79510714Y-99074819D02*
X78939286Y-99074819D01*
X79225000Y-99074819D02*
X79225000Y-98074819D01*
X79225000Y-98074819D02*
X79129762Y-98217676D01*
X79129762Y-98217676D02*
X79034524Y-98312914D01*
X79034524Y-98312914D02*
X78939286Y-98360533D01*
X135693452Y-77224819D02*
X135217262Y-77224819D01*
X135217262Y-77224819D02*
X135217262Y-76224819D01*
X136026786Y-76701009D02*
X136360119Y-76701009D01*
X136502976Y-77224819D02*
X136026786Y-77224819D01*
X136026786Y-77224819D02*
X136026786Y-76224819D01*
X136026786Y-76224819D02*
X136502976Y-76224819D01*
X136931548Y-77224819D02*
X136931548Y-76224819D01*
X136931548Y-76224819D02*
X137169643Y-76224819D01*
X137169643Y-76224819D02*
X137312500Y-76272438D01*
X137312500Y-76272438D02*
X137407738Y-76367676D01*
X137407738Y-76367676D02*
X137455357Y-76462914D01*
X137455357Y-76462914D02*
X137502976Y-76653390D01*
X137502976Y-76653390D02*
X137502976Y-76796247D01*
X137502976Y-76796247D02*
X137455357Y-76986723D01*
X137455357Y-76986723D02*
X137407738Y-77081961D01*
X137407738Y-77081961D02*
X137312500Y-77177200D01*
X137312500Y-77177200D02*
X137169643Y-77224819D01*
X137169643Y-77224819D02*
X136931548Y-77224819D01*
X138455357Y-77224819D02*
X137883929Y-77224819D01*
X138169643Y-77224819D02*
X138169643Y-76224819D01*
X138169643Y-76224819D02*
X138074405Y-76367676D01*
X138074405Y-76367676D02*
X137979167Y-76462914D01*
X137979167Y-76462914D02*
X137883929Y-76510533D01*
X75684819Y-147092857D02*
X75208628Y-147426190D01*
X75684819Y-147664285D02*
X74684819Y-147664285D01*
X74684819Y-147664285D02*
X74684819Y-147283333D01*
X74684819Y-147283333D02*
X74732438Y-147188095D01*
X74732438Y-147188095D02*
X74780057Y-147140476D01*
X74780057Y-147140476D02*
X74875295Y-147092857D01*
X74875295Y-147092857D02*
X75018152Y-147092857D01*
X75018152Y-147092857D02*
X75113390Y-147140476D01*
X75113390Y-147140476D02*
X75161009Y-147188095D01*
X75161009Y-147188095D02*
X75208628Y-147283333D01*
X75208628Y-147283333D02*
X75208628Y-147664285D01*
X75684819Y-146140476D02*
X75684819Y-146711904D01*
X75684819Y-146426190D02*
X74684819Y-146426190D01*
X74684819Y-146426190D02*
X74827676Y-146521428D01*
X74827676Y-146521428D02*
X74922914Y-146616666D01*
X74922914Y-146616666D02*
X74970533Y-146711904D01*
X74684819Y-145807142D02*
X74684819Y-145140476D01*
X74684819Y-145140476D02*
X75684819Y-145569047D01*
X119733333Y-114204819D02*
X119400000Y-113728628D01*
X119161905Y-114204819D02*
X119161905Y-113204819D01*
X119161905Y-113204819D02*
X119542857Y-113204819D01*
X119542857Y-113204819D02*
X119638095Y-113252438D01*
X119638095Y-113252438D02*
X119685714Y-113300057D01*
X119685714Y-113300057D02*
X119733333Y-113395295D01*
X119733333Y-113395295D02*
X119733333Y-113538152D01*
X119733333Y-113538152D02*
X119685714Y-113633390D01*
X119685714Y-113633390D02*
X119638095Y-113681009D01*
X119638095Y-113681009D02*
X119542857Y-113728628D01*
X119542857Y-113728628D02*
X119161905Y-113728628D01*
X120590476Y-113538152D02*
X120590476Y-114204819D01*
X120352381Y-113157200D02*
X120114286Y-113871485D01*
X120114286Y-113871485D02*
X120733333Y-113871485D01*
X103754819Y-99142857D02*
X103278628Y-99476190D01*
X103754819Y-99714285D02*
X102754819Y-99714285D01*
X102754819Y-99714285D02*
X102754819Y-99333333D01*
X102754819Y-99333333D02*
X102802438Y-99238095D01*
X102802438Y-99238095D02*
X102850057Y-99190476D01*
X102850057Y-99190476D02*
X102945295Y-99142857D01*
X102945295Y-99142857D02*
X103088152Y-99142857D01*
X103088152Y-99142857D02*
X103183390Y-99190476D01*
X103183390Y-99190476D02*
X103231009Y-99238095D01*
X103231009Y-99238095D02*
X103278628Y-99333333D01*
X103278628Y-99333333D02*
X103278628Y-99714285D01*
X102850057Y-98761904D02*
X102802438Y-98714285D01*
X102802438Y-98714285D02*
X102754819Y-98619047D01*
X102754819Y-98619047D02*
X102754819Y-98380952D01*
X102754819Y-98380952D02*
X102802438Y-98285714D01*
X102802438Y-98285714D02*
X102850057Y-98238095D01*
X102850057Y-98238095D02*
X102945295Y-98190476D01*
X102945295Y-98190476D02*
X103040533Y-98190476D01*
X103040533Y-98190476D02*
X103183390Y-98238095D01*
X103183390Y-98238095D02*
X103754819Y-98809523D01*
X103754819Y-98809523D02*
X103754819Y-98190476D01*
X102754819Y-97571428D02*
X102754819Y-97476190D01*
X102754819Y-97476190D02*
X102802438Y-97380952D01*
X102802438Y-97380952D02*
X102850057Y-97333333D01*
X102850057Y-97333333D02*
X102945295Y-97285714D01*
X102945295Y-97285714D02*
X103135771Y-97238095D01*
X103135771Y-97238095D02*
X103373866Y-97238095D01*
X103373866Y-97238095D02*
X103564342Y-97285714D01*
X103564342Y-97285714D02*
X103659580Y-97333333D01*
X103659580Y-97333333D02*
X103707200Y-97380952D01*
X103707200Y-97380952D02*
X103754819Y-97476190D01*
X103754819Y-97476190D02*
X103754819Y-97571428D01*
X103754819Y-97571428D02*
X103707200Y-97666666D01*
X103707200Y-97666666D02*
X103659580Y-97714285D01*
X103659580Y-97714285D02*
X103564342Y-97761904D01*
X103564342Y-97761904D02*
X103373866Y-97809523D01*
X103373866Y-97809523D02*
X103135771Y-97809523D01*
X103135771Y-97809523D02*
X102945295Y-97761904D01*
X102945295Y-97761904D02*
X102850057Y-97714285D01*
X102850057Y-97714285D02*
X102802438Y-97666666D01*
X102802438Y-97666666D02*
X102754819Y-97571428D01*
X138674819Y-152867857D02*
X138198628Y-153201190D01*
X138674819Y-153439285D02*
X137674819Y-153439285D01*
X137674819Y-153439285D02*
X137674819Y-153058333D01*
X137674819Y-153058333D02*
X137722438Y-152963095D01*
X137722438Y-152963095D02*
X137770057Y-152915476D01*
X137770057Y-152915476D02*
X137865295Y-152867857D01*
X137865295Y-152867857D02*
X138008152Y-152867857D01*
X138008152Y-152867857D02*
X138103390Y-152915476D01*
X138103390Y-152915476D02*
X138151009Y-152963095D01*
X138151009Y-152963095D02*
X138198628Y-153058333D01*
X138198628Y-153058333D02*
X138198628Y-153439285D01*
X137770057Y-152486904D02*
X137722438Y-152439285D01*
X137722438Y-152439285D02*
X137674819Y-152344047D01*
X137674819Y-152344047D02*
X137674819Y-152105952D01*
X137674819Y-152105952D02*
X137722438Y-152010714D01*
X137722438Y-152010714D02*
X137770057Y-151963095D01*
X137770057Y-151963095D02*
X137865295Y-151915476D01*
X137865295Y-151915476D02*
X137960533Y-151915476D01*
X137960533Y-151915476D02*
X138103390Y-151963095D01*
X138103390Y-151963095D02*
X138674819Y-152534523D01*
X138674819Y-152534523D02*
X138674819Y-151915476D01*
X137674819Y-151582142D02*
X137674819Y-150963095D01*
X137674819Y-150963095D02*
X138055771Y-151296428D01*
X138055771Y-151296428D02*
X138055771Y-151153571D01*
X138055771Y-151153571D02*
X138103390Y-151058333D01*
X138103390Y-151058333D02*
X138151009Y-151010714D01*
X138151009Y-151010714D02*
X138246247Y-150963095D01*
X138246247Y-150963095D02*
X138484342Y-150963095D01*
X138484342Y-150963095D02*
X138579580Y-151010714D01*
X138579580Y-151010714D02*
X138627200Y-151058333D01*
X138627200Y-151058333D02*
X138674819Y-151153571D01*
X138674819Y-151153571D02*
X138674819Y-151439285D01*
X138674819Y-151439285D02*
X138627200Y-151534523D01*
X138627200Y-151534523D02*
X138579580Y-151582142D01*
X78558333Y-94579580D02*
X78510714Y-94627200D01*
X78510714Y-94627200D02*
X78367857Y-94674819D01*
X78367857Y-94674819D02*
X78272619Y-94674819D01*
X78272619Y-94674819D02*
X78129762Y-94627200D01*
X78129762Y-94627200D02*
X78034524Y-94531961D01*
X78034524Y-94531961D02*
X77986905Y-94436723D01*
X77986905Y-94436723D02*
X77939286Y-94246247D01*
X77939286Y-94246247D02*
X77939286Y-94103390D01*
X77939286Y-94103390D02*
X77986905Y-93912914D01*
X77986905Y-93912914D02*
X78034524Y-93817676D01*
X78034524Y-93817676D02*
X78129762Y-93722438D01*
X78129762Y-93722438D02*
X78272619Y-93674819D01*
X78272619Y-93674819D02*
X78367857Y-93674819D01*
X78367857Y-93674819D02*
X78510714Y-93722438D01*
X78510714Y-93722438D02*
X78558333Y-93770057D01*
X79415476Y-93674819D02*
X79225000Y-93674819D01*
X79225000Y-93674819D02*
X79129762Y-93722438D01*
X79129762Y-93722438D02*
X79082143Y-93770057D01*
X79082143Y-93770057D02*
X78986905Y-93912914D01*
X78986905Y-93912914D02*
X78939286Y-94103390D01*
X78939286Y-94103390D02*
X78939286Y-94484342D01*
X78939286Y-94484342D02*
X78986905Y-94579580D01*
X78986905Y-94579580D02*
X79034524Y-94627200D01*
X79034524Y-94627200D02*
X79129762Y-94674819D01*
X79129762Y-94674819D02*
X79320238Y-94674819D01*
X79320238Y-94674819D02*
X79415476Y-94627200D01*
X79415476Y-94627200D02*
X79463095Y-94579580D01*
X79463095Y-94579580D02*
X79510714Y-94484342D01*
X79510714Y-94484342D02*
X79510714Y-94246247D01*
X79510714Y-94246247D02*
X79463095Y-94151009D01*
X79463095Y-94151009D02*
X79415476Y-94103390D01*
X79415476Y-94103390D02*
X79320238Y-94055771D01*
X79320238Y-94055771D02*
X79129762Y-94055771D01*
X79129762Y-94055771D02*
X79034524Y-94103390D01*
X79034524Y-94103390D02*
X78986905Y-94151009D01*
X78986905Y-94151009D02*
X78939286Y-94246247D01*
X68804819Y-141842857D02*
X68328628Y-142176190D01*
X68804819Y-142414285D02*
X67804819Y-142414285D01*
X67804819Y-142414285D02*
X67804819Y-142033333D01*
X67804819Y-142033333D02*
X67852438Y-141938095D01*
X67852438Y-141938095D02*
X67900057Y-141890476D01*
X67900057Y-141890476D02*
X67995295Y-141842857D01*
X67995295Y-141842857D02*
X68138152Y-141842857D01*
X68138152Y-141842857D02*
X68233390Y-141890476D01*
X68233390Y-141890476D02*
X68281009Y-141938095D01*
X68281009Y-141938095D02*
X68328628Y-142033333D01*
X68328628Y-142033333D02*
X68328628Y-142414285D01*
X68804819Y-140890476D02*
X68804819Y-141461904D01*
X68804819Y-141176190D02*
X67804819Y-141176190D01*
X67804819Y-141176190D02*
X67947676Y-141271428D01*
X67947676Y-141271428D02*
X68042914Y-141366666D01*
X68042914Y-141366666D02*
X68090533Y-141461904D01*
X67804819Y-140271428D02*
X67804819Y-140176190D01*
X67804819Y-140176190D02*
X67852438Y-140080952D01*
X67852438Y-140080952D02*
X67900057Y-140033333D01*
X67900057Y-140033333D02*
X67995295Y-139985714D01*
X67995295Y-139985714D02*
X68185771Y-139938095D01*
X68185771Y-139938095D02*
X68423866Y-139938095D01*
X68423866Y-139938095D02*
X68614342Y-139985714D01*
X68614342Y-139985714D02*
X68709580Y-140033333D01*
X68709580Y-140033333D02*
X68757200Y-140080952D01*
X68757200Y-140080952D02*
X68804819Y-140176190D01*
X68804819Y-140176190D02*
X68804819Y-140271428D01*
X68804819Y-140271428D02*
X68757200Y-140366666D01*
X68757200Y-140366666D02*
X68709580Y-140414285D01*
X68709580Y-140414285D02*
X68614342Y-140461904D01*
X68614342Y-140461904D02*
X68423866Y-140509523D01*
X68423866Y-140509523D02*
X68185771Y-140509523D01*
X68185771Y-140509523D02*
X67995295Y-140461904D01*
X67995295Y-140461904D02*
X67900057Y-140414285D01*
X67900057Y-140414285D02*
X67852438Y-140366666D01*
X67852438Y-140366666D02*
X67804819Y-140271428D01*
X127054819Y-146824404D02*
X127864342Y-146824404D01*
X127864342Y-146824404D02*
X127959580Y-146776785D01*
X127959580Y-146776785D02*
X128007200Y-146729166D01*
X128007200Y-146729166D02*
X128054819Y-146633928D01*
X128054819Y-146633928D02*
X128054819Y-146443452D01*
X128054819Y-146443452D02*
X128007200Y-146348214D01*
X128007200Y-146348214D02*
X127959580Y-146300595D01*
X127959580Y-146300595D02*
X127864342Y-146252976D01*
X127864342Y-146252976D02*
X127054819Y-146252976D01*
X127054819Y-145348214D02*
X127054819Y-145538690D01*
X127054819Y-145538690D02*
X127102438Y-145633928D01*
X127102438Y-145633928D02*
X127150057Y-145681547D01*
X127150057Y-145681547D02*
X127292914Y-145776785D01*
X127292914Y-145776785D02*
X127483390Y-145824404D01*
X127483390Y-145824404D02*
X127864342Y-145824404D01*
X127864342Y-145824404D02*
X127959580Y-145776785D01*
X127959580Y-145776785D02*
X128007200Y-145729166D01*
X128007200Y-145729166D02*
X128054819Y-145633928D01*
X128054819Y-145633928D02*
X128054819Y-145443452D01*
X128054819Y-145443452D02*
X128007200Y-145348214D01*
X128007200Y-145348214D02*
X127959580Y-145300595D01*
X127959580Y-145300595D02*
X127864342Y-145252976D01*
X127864342Y-145252976D02*
X127626247Y-145252976D01*
X127626247Y-145252976D02*
X127531009Y-145300595D01*
X127531009Y-145300595D02*
X127483390Y-145348214D01*
X127483390Y-145348214D02*
X127435771Y-145443452D01*
X127435771Y-145443452D02*
X127435771Y-145633928D01*
X127435771Y-145633928D02*
X127483390Y-145729166D01*
X127483390Y-145729166D02*
X127531009Y-145776785D01*
X127531009Y-145776785D02*
X127626247Y-145824404D01*
X78224819Y-147067857D02*
X77748628Y-147401190D01*
X78224819Y-147639285D02*
X77224819Y-147639285D01*
X77224819Y-147639285D02*
X77224819Y-147258333D01*
X77224819Y-147258333D02*
X77272438Y-147163095D01*
X77272438Y-147163095D02*
X77320057Y-147115476D01*
X77320057Y-147115476D02*
X77415295Y-147067857D01*
X77415295Y-147067857D02*
X77558152Y-147067857D01*
X77558152Y-147067857D02*
X77653390Y-147115476D01*
X77653390Y-147115476D02*
X77701009Y-147163095D01*
X77701009Y-147163095D02*
X77748628Y-147258333D01*
X77748628Y-147258333D02*
X77748628Y-147639285D01*
X78224819Y-146115476D02*
X78224819Y-146686904D01*
X78224819Y-146401190D02*
X77224819Y-146401190D01*
X77224819Y-146401190D02*
X77367676Y-146496428D01*
X77367676Y-146496428D02*
X77462914Y-146591666D01*
X77462914Y-146591666D02*
X77510533Y-146686904D01*
X77320057Y-145734523D02*
X77272438Y-145686904D01*
X77272438Y-145686904D02*
X77224819Y-145591666D01*
X77224819Y-145591666D02*
X77224819Y-145353571D01*
X77224819Y-145353571D02*
X77272438Y-145258333D01*
X77272438Y-145258333D02*
X77320057Y-145210714D01*
X77320057Y-145210714D02*
X77415295Y-145163095D01*
X77415295Y-145163095D02*
X77510533Y-145163095D01*
X77510533Y-145163095D02*
X77653390Y-145210714D01*
X77653390Y-145210714D02*
X78224819Y-145782142D01*
X78224819Y-145782142D02*
X78224819Y-145163095D01*
X109708333Y-55024819D02*
X109375000Y-54548628D01*
X109136905Y-55024819D02*
X109136905Y-54024819D01*
X109136905Y-54024819D02*
X109517857Y-54024819D01*
X109517857Y-54024819D02*
X109613095Y-54072438D01*
X109613095Y-54072438D02*
X109660714Y-54120057D01*
X109660714Y-54120057D02*
X109708333Y-54215295D01*
X109708333Y-54215295D02*
X109708333Y-54358152D01*
X109708333Y-54358152D02*
X109660714Y-54453390D01*
X109660714Y-54453390D02*
X109613095Y-54501009D01*
X109613095Y-54501009D02*
X109517857Y-54548628D01*
X109517857Y-54548628D02*
X109136905Y-54548628D01*
X110613095Y-54024819D02*
X110136905Y-54024819D01*
X110136905Y-54024819D02*
X110089286Y-54501009D01*
X110089286Y-54501009D02*
X110136905Y-54453390D01*
X110136905Y-54453390D02*
X110232143Y-54405771D01*
X110232143Y-54405771D02*
X110470238Y-54405771D01*
X110470238Y-54405771D02*
X110565476Y-54453390D01*
X110565476Y-54453390D02*
X110613095Y-54501009D01*
X110613095Y-54501009D02*
X110660714Y-54596247D01*
X110660714Y-54596247D02*
X110660714Y-54834342D01*
X110660714Y-54834342D02*
X110613095Y-54929580D01*
X110613095Y-54929580D02*
X110565476Y-54977200D01*
X110565476Y-54977200D02*
X110470238Y-55024819D01*
X110470238Y-55024819D02*
X110232143Y-55024819D01*
X110232143Y-55024819D02*
X110136905Y-54977200D01*
X110136905Y-54977200D02*
X110089286Y-54929580D01*
X133808333Y-59824819D02*
X133475000Y-59348628D01*
X133236905Y-59824819D02*
X133236905Y-58824819D01*
X133236905Y-58824819D02*
X133617857Y-58824819D01*
X133617857Y-58824819D02*
X133713095Y-58872438D01*
X133713095Y-58872438D02*
X133760714Y-58920057D01*
X133760714Y-58920057D02*
X133808333Y-59015295D01*
X133808333Y-59015295D02*
X133808333Y-59158152D01*
X133808333Y-59158152D02*
X133760714Y-59253390D01*
X133760714Y-59253390D02*
X133713095Y-59301009D01*
X133713095Y-59301009D02*
X133617857Y-59348628D01*
X133617857Y-59348628D02*
X133236905Y-59348628D01*
X134379762Y-59253390D02*
X134284524Y-59205771D01*
X134284524Y-59205771D02*
X134236905Y-59158152D01*
X134236905Y-59158152D02*
X134189286Y-59062914D01*
X134189286Y-59062914D02*
X134189286Y-59015295D01*
X134189286Y-59015295D02*
X134236905Y-58920057D01*
X134236905Y-58920057D02*
X134284524Y-58872438D01*
X134284524Y-58872438D02*
X134379762Y-58824819D01*
X134379762Y-58824819D02*
X134570238Y-58824819D01*
X134570238Y-58824819D02*
X134665476Y-58872438D01*
X134665476Y-58872438D02*
X134713095Y-58920057D01*
X134713095Y-58920057D02*
X134760714Y-59015295D01*
X134760714Y-59015295D02*
X134760714Y-59062914D01*
X134760714Y-59062914D02*
X134713095Y-59158152D01*
X134713095Y-59158152D02*
X134665476Y-59205771D01*
X134665476Y-59205771D02*
X134570238Y-59253390D01*
X134570238Y-59253390D02*
X134379762Y-59253390D01*
X134379762Y-59253390D02*
X134284524Y-59301009D01*
X134284524Y-59301009D02*
X134236905Y-59348628D01*
X134236905Y-59348628D02*
X134189286Y-59443866D01*
X134189286Y-59443866D02*
X134189286Y-59634342D01*
X134189286Y-59634342D02*
X134236905Y-59729580D01*
X134236905Y-59729580D02*
X134284524Y-59777200D01*
X134284524Y-59777200D02*
X134379762Y-59824819D01*
X134379762Y-59824819D02*
X134570238Y-59824819D01*
X134570238Y-59824819D02*
X134665476Y-59777200D01*
X134665476Y-59777200D02*
X134713095Y-59729580D01*
X134713095Y-59729580D02*
X134760714Y-59634342D01*
X134760714Y-59634342D02*
X134760714Y-59443866D01*
X134760714Y-59443866D02*
X134713095Y-59348628D01*
X134713095Y-59348628D02*
X134665476Y-59301009D01*
X134665476Y-59301009D02*
X134570238Y-59253390D01*
X96654819Y-146774404D02*
X97464342Y-146774404D01*
X97464342Y-146774404D02*
X97559580Y-146726785D01*
X97559580Y-146726785D02*
X97607200Y-146679166D01*
X97607200Y-146679166D02*
X97654819Y-146583928D01*
X97654819Y-146583928D02*
X97654819Y-146393452D01*
X97654819Y-146393452D02*
X97607200Y-146298214D01*
X97607200Y-146298214D02*
X97559580Y-146250595D01*
X97559580Y-146250595D02*
X97464342Y-146202976D01*
X97464342Y-146202976D02*
X96654819Y-146202976D01*
X96654819Y-145822023D02*
X96654819Y-145202976D01*
X96654819Y-145202976D02*
X97035771Y-145536309D01*
X97035771Y-145536309D02*
X97035771Y-145393452D01*
X97035771Y-145393452D02*
X97083390Y-145298214D01*
X97083390Y-145298214D02*
X97131009Y-145250595D01*
X97131009Y-145250595D02*
X97226247Y-145202976D01*
X97226247Y-145202976D02*
X97464342Y-145202976D01*
X97464342Y-145202976D02*
X97559580Y-145250595D01*
X97559580Y-145250595D02*
X97607200Y-145298214D01*
X97607200Y-145298214D02*
X97654819Y-145393452D01*
X97654819Y-145393452D02*
X97654819Y-145679166D01*
X97654819Y-145679166D02*
X97607200Y-145774404D01*
X97607200Y-145774404D02*
X97559580Y-145822023D01*
X145334819Y-146866666D02*
X144858628Y-147199999D01*
X145334819Y-147438094D02*
X144334819Y-147438094D01*
X144334819Y-147438094D02*
X144334819Y-147057142D01*
X144334819Y-147057142D02*
X144382438Y-146961904D01*
X144382438Y-146961904D02*
X144430057Y-146914285D01*
X144430057Y-146914285D02*
X144525295Y-146866666D01*
X144525295Y-146866666D02*
X144668152Y-146866666D01*
X144668152Y-146866666D02*
X144763390Y-146914285D01*
X144763390Y-146914285D02*
X144811009Y-146961904D01*
X144811009Y-146961904D02*
X144858628Y-147057142D01*
X144858628Y-147057142D02*
X144858628Y-147438094D01*
X144334819Y-146533332D02*
X144334819Y-145914285D01*
X144334819Y-145914285D02*
X144715771Y-146247618D01*
X144715771Y-146247618D02*
X144715771Y-146104761D01*
X144715771Y-146104761D02*
X144763390Y-146009523D01*
X144763390Y-146009523D02*
X144811009Y-145961904D01*
X144811009Y-145961904D02*
X144906247Y-145914285D01*
X144906247Y-145914285D02*
X145144342Y-145914285D01*
X145144342Y-145914285D02*
X145239580Y-145961904D01*
X145239580Y-145961904D02*
X145287200Y-146009523D01*
X145287200Y-146009523D02*
X145334819Y-146104761D01*
X145334819Y-146104761D02*
X145334819Y-146390475D01*
X145334819Y-146390475D02*
X145287200Y-146485713D01*
X145287200Y-146485713D02*
X145239580Y-146533332D01*
X121907142Y-116434819D02*
X121573809Y-115958628D01*
X121335714Y-116434819D02*
X121335714Y-115434819D01*
X121335714Y-115434819D02*
X121716666Y-115434819D01*
X121716666Y-115434819D02*
X121811904Y-115482438D01*
X121811904Y-115482438D02*
X121859523Y-115530057D01*
X121859523Y-115530057D02*
X121907142Y-115625295D01*
X121907142Y-115625295D02*
X121907142Y-115768152D01*
X121907142Y-115768152D02*
X121859523Y-115863390D01*
X121859523Y-115863390D02*
X121811904Y-115911009D01*
X121811904Y-115911009D02*
X121716666Y-115958628D01*
X121716666Y-115958628D02*
X121335714Y-115958628D01*
X122859523Y-116434819D02*
X122288095Y-116434819D01*
X122573809Y-116434819D02*
X122573809Y-115434819D01*
X122573809Y-115434819D02*
X122478571Y-115577676D01*
X122478571Y-115577676D02*
X122383333Y-115672914D01*
X122383333Y-115672914D02*
X122288095Y-115720533D01*
X123192857Y-115434819D02*
X123811904Y-115434819D01*
X123811904Y-115434819D02*
X123478571Y-115815771D01*
X123478571Y-115815771D02*
X123621428Y-115815771D01*
X123621428Y-115815771D02*
X123716666Y-115863390D01*
X123716666Y-115863390D02*
X123764285Y-115911009D01*
X123764285Y-115911009D02*
X123811904Y-116006247D01*
X123811904Y-116006247D02*
X123811904Y-116244342D01*
X123811904Y-116244342D02*
X123764285Y-116339580D01*
X123764285Y-116339580D02*
X123716666Y-116387200D01*
X123716666Y-116387200D02*
X123621428Y-116434819D01*
X123621428Y-116434819D02*
X123335714Y-116434819D01*
X123335714Y-116434819D02*
X123240476Y-116387200D01*
X123240476Y-116387200D02*
X123192857Y-116339580D01*
X104923809Y-127328628D02*
X104923809Y-127804819D01*
X104590476Y-126804819D02*
X104923809Y-127328628D01*
X104923809Y-127328628D02*
X105257142Y-126804819D01*
X106114285Y-127804819D02*
X105542857Y-127804819D01*
X105828571Y-127804819D02*
X105828571Y-126804819D01*
X105828571Y-126804819D02*
X105733333Y-126947676D01*
X105733333Y-126947676D02*
X105638095Y-127042914D01*
X105638095Y-127042914D02*
X105542857Y-127090533D01*
X126832142Y-111024819D02*
X126498809Y-110548628D01*
X126260714Y-111024819D02*
X126260714Y-110024819D01*
X126260714Y-110024819D02*
X126641666Y-110024819D01*
X126641666Y-110024819D02*
X126736904Y-110072438D01*
X126736904Y-110072438D02*
X126784523Y-110120057D01*
X126784523Y-110120057D02*
X126832142Y-110215295D01*
X126832142Y-110215295D02*
X126832142Y-110358152D01*
X126832142Y-110358152D02*
X126784523Y-110453390D01*
X126784523Y-110453390D02*
X126736904Y-110501009D01*
X126736904Y-110501009D02*
X126641666Y-110548628D01*
X126641666Y-110548628D02*
X126260714Y-110548628D01*
X127213095Y-110120057D02*
X127260714Y-110072438D01*
X127260714Y-110072438D02*
X127355952Y-110024819D01*
X127355952Y-110024819D02*
X127594047Y-110024819D01*
X127594047Y-110024819D02*
X127689285Y-110072438D01*
X127689285Y-110072438D02*
X127736904Y-110120057D01*
X127736904Y-110120057D02*
X127784523Y-110215295D01*
X127784523Y-110215295D02*
X127784523Y-110310533D01*
X127784523Y-110310533D02*
X127736904Y-110453390D01*
X127736904Y-110453390D02*
X127165476Y-111024819D01*
X127165476Y-111024819D02*
X127784523Y-111024819D01*
X128736904Y-111024819D02*
X128165476Y-111024819D01*
X128451190Y-111024819D02*
X128451190Y-110024819D01*
X128451190Y-110024819D02*
X128355952Y-110167676D01*
X128355952Y-110167676D02*
X128260714Y-110262914D01*
X128260714Y-110262914D02*
X128165476Y-110310533D01*
X76609580Y-109191666D02*
X76657200Y-109239285D01*
X76657200Y-109239285D02*
X76704819Y-109382142D01*
X76704819Y-109382142D02*
X76704819Y-109477380D01*
X76704819Y-109477380D02*
X76657200Y-109620237D01*
X76657200Y-109620237D02*
X76561961Y-109715475D01*
X76561961Y-109715475D02*
X76466723Y-109763094D01*
X76466723Y-109763094D02*
X76276247Y-109810713D01*
X76276247Y-109810713D02*
X76133390Y-109810713D01*
X76133390Y-109810713D02*
X75942914Y-109763094D01*
X75942914Y-109763094D02*
X75847676Y-109715475D01*
X75847676Y-109715475D02*
X75752438Y-109620237D01*
X75752438Y-109620237D02*
X75704819Y-109477380D01*
X75704819Y-109477380D02*
X75704819Y-109382142D01*
X75704819Y-109382142D02*
X75752438Y-109239285D01*
X75752438Y-109239285D02*
X75800057Y-109191666D01*
X75800057Y-108810713D02*
X75752438Y-108763094D01*
X75752438Y-108763094D02*
X75704819Y-108667856D01*
X75704819Y-108667856D02*
X75704819Y-108429761D01*
X75704819Y-108429761D02*
X75752438Y-108334523D01*
X75752438Y-108334523D02*
X75800057Y-108286904D01*
X75800057Y-108286904D02*
X75895295Y-108239285D01*
X75895295Y-108239285D02*
X75990533Y-108239285D01*
X75990533Y-108239285D02*
X76133390Y-108286904D01*
X76133390Y-108286904D02*
X76704819Y-108858332D01*
X76704819Y-108858332D02*
X76704819Y-108239285D01*
X130092319Y-106238094D02*
X129092319Y-106238094D01*
X129092319Y-106238094D02*
X129092319Y-105999999D01*
X129092319Y-105999999D02*
X129139938Y-105857142D01*
X129139938Y-105857142D02*
X129235176Y-105761904D01*
X129235176Y-105761904D02*
X129330414Y-105714285D01*
X129330414Y-105714285D02*
X129520890Y-105666666D01*
X129520890Y-105666666D02*
X129663747Y-105666666D01*
X129663747Y-105666666D02*
X129854223Y-105714285D01*
X129854223Y-105714285D02*
X129949461Y-105761904D01*
X129949461Y-105761904D02*
X130044700Y-105857142D01*
X130044700Y-105857142D02*
X130092319Y-105999999D01*
X130092319Y-105999999D02*
X130092319Y-106238094D01*
X129092319Y-105333332D02*
X129092319Y-104714285D01*
X129092319Y-104714285D02*
X129473271Y-105047618D01*
X129473271Y-105047618D02*
X129473271Y-104904761D01*
X129473271Y-104904761D02*
X129520890Y-104809523D01*
X129520890Y-104809523D02*
X129568509Y-104761904D01*
X129568509Y-104761904D02*
X129663747Y-104714285D01*
X129663747Y-104714285D02*
X129901842Y-104714285D01*
X129901842Y-104714285D02*
X129997080Y-104761904D01*
X129997080Y-104761904D02*
X130044700Y-104809523D01*
X130044700Y-104809523D02*
X130092319Y-104904761D01*
X130092319Y-104904761D02*
X130092319Y-105190475D01*
X130092319Y-105190475D02*
X130044700Y-105285713D01*
X130044700Y-105285713D02*
X129997080Y-105333332D01*
X101933333Y-128034580D02*
X101885714Y-128082200D01*
X101885714Y-128082200D02*
X101742857Y-128129819D01*
X101742857Y-128129819D02*
X101647619Y-128129819D01*
X101647619Y-128129819D02*
X101504762Y-128082200D01*
X101504762Y-128082200D02*
X101409524Y-127986961D01*
X101409524Y-127986961D02*
X101361905Y-127891723D01*
X101361905Y-127891723D02*
X101314286Y-127701247D01*
X101314286Y-127701247D02*
X101314286Y-127558390D01*
X101314286Y-127558390D02*
X101361905Y-127367914D01*
X101361905Y-127367914D02*
X101409524Y-127272676D01*
X101409524Y-127272676D02*
X101504762Y-127177438D01*
X101504762Y-127177438D02*
X101647619Y-127129819D01*
X101647619Y-127129819D02*
X101742857Y-127129819D01*
X101742857Y-127129819D02*
X101885714Y-127177438D01*
X101885714Y-127177438D02*
X101933333Y-127225057D01*
X102790476Y-127463152D02*
X102790476Y-128129819D01*
X102552381Y-127082200D02*
X102314286Y-127796485D01*
X102314286Y-127796485D02*
X102933333Y-127796485D01*
X113534819Y-102592857D02*
X113058628Y-102926190D01*
X113534819Y-103164285D02*
X112534819Y-103164285D01*
X112534819Y-103164285D02*
X112534819Y-102783333D01*
X112534819Y-102783333D02*
X112582438Y-102688095D01*
X112582438Y-102688095D02*
X112630057Y-102640476D01*
X112630057Y-102640476D02*
X112725295Y-102592857D01*
X112725295Y-102592857D02*
X112868152Y-102592857D01*
X112868152Y-102592857D02*
X112963390Y-102640476D01*
X112963390Y-102640476D02*
X113011009Y-102688095D01*
X113011009Y-102688095D02*
X113058628Y-102783333D01*
X113058628Y-102783333D02*
X113058628Y-103164285D01*
X113534819Y-101640476D02*
X113534819Y-102211904D01*
X113534819Y-101926190D02*
X112534819Y-101926190D01*
X112534819Y-101926190D02*
X112677676Y-102021428D01*
X112677676Y-102021428D02*
X112772914Y-102116666D01*
X112772914Y-102116666D02*
X112820533Y-102211904D01*
X112868152Y-100783333D02*
X113534819Y-100783333D01*
X112487200Y-101021428D02*
X113201485Y-101259523D01*
X113201485Y-101259523D02*
X113201485Y-100640476D01*
X142066667Y-53607200D02*
X142209524Y-53654819D01*
X142209524Y-53654819D02*
X142447619Y-53654819D01*
X142447619Y-53654819D02*
X142542857Y-53607200D01*
X142542857Y-53607200D02*
X142590476Y-53559580D01*
X142590476Y-53559580D02*
X142638095Y-53464342D01*
X142638095Y-53464342D02*
X142638095Y-53369104D01*
X142638095Y-53369104D02*
X142590476Y-53273866D01*
X142590476Y-53273866D02*
X142542857Y-53226247D01*
X142542857Y-53226247D02*
X142447619Y-53178628D01*
X142447619Y-53178628D02*
X142257143Y-53131009D01*
X142257143Y-53131009D02*
X142161905Y-53083390D01*
X142161905Y-53083390D02*
X142114286Y-53035771D01*
X142114286Y-53035771D02*
X142066667Y-52940533D01*
X142066667Y-52940533D02*
X142066667Y-52845295D01*
X142066667Y-52845295D02*
X142114286Y-52750057D01*
X142114286Y-52750057D02*
X142161905Y-52702438D01*
X142161905Y-52702438D02*
X142257143Y-52654819D01*
X142257143Y-52654819D02*
X142495238Y-52654819D01*
X142495238Y-52654819D02*
X142638095Y-52702438D01*
X142971429Y-52654819D02*
X143209524Y-53654819D01*
X143209524Y-53654819D02*
X143400000Y-52940533D01*
X143400000Y-52940533D02*
X143590476Y-53654819D01*
X143590476Y-53654819D02*
X143828572Y-52654819D01*
X144638095Y-52988152D02*
X144638095Y-53654819D01*
X144400000Y-52607200D02*
X144161905Y-53321485D01*
X144161905Y-53321485D02*
X144780952Y-53321485D01*
X116657142Y-106254819D02*
X116323809Y-105778628D01*
X116085714Y-106254819D02*
X116085714Y-105254819D01*
X116085714Y-105254819D02*
X116466666Y-105254819D01*
X116466666Y-105254819D02*
X116561904Y-105302438D01*
X116561904Y-105302438D02*
X116609523Y-105350057D01*
X116609523Y-105350057D02*
X116657142Y-105445295D01*
X116657142Y-105445295D02*
X116657142Y-105588152D01*
X116657142Y-105588152D02*
X116609523Y-105683390D01*
X116609523Y-105683390D02*
X116561904Y-105731009D01*
X116561904Y-105731009D02*
X116466666Y-105778628D01*
X116466666Y-105778628D02*
X116085714Y-105778628D01*
X117038095Y-105350057D02*
X117085714Y-105302438D01*
X117085714Y-105302438D02*
X117180952Y-105254819D01*
X117180952Y-105254819D02*
X117419047Y-105254819D01*
X117419047Y-105254819D02*
X117514285Y-105302438D01*
X117514285Y-105302438D02*
X117561904Y-105350057D01*
X117561904Y-105350057D02*
X117609523Y-105445295D01*
X117609523Y-105445295D02*
X117609523Y-105540533D01*
X117609523Y-105540533D02*
X117561904Y-105683390D01*
X117561904Y-105683390D02*
X116990476Y-106254819D01*
X116990476Y-106254819D02*
X117609523Y-106254819D01*
X118466666Y-105588152D02*
X118466666Y-106254819D01*
X118228571Y-105207200D02*
X117990476Y-105921485D01*
X117990476Y-105921485D02*
X118609523Y-105921485D01*
X74809580Y-109166666D02*
X74857200Y-109214285D01*
X74857200Y-109214285D02*
X74904819Y-109357142D01*
X74904819Y-109357142D02*
X74904819Y-109452380D01*
X74904819Y-109452380D02*
X74857200Y-109595237D01*
X74857200Y-109595237D02*
X74761961Y-109690475D01*
X74761961Y-109690475D02*
X74666723Y-109738094D01*
X74666723Y-109738094D02*
X74476247Y-109785713D01*
X74476247Y-109785713D02*
X74333390Y-109785713D01*
X74333390Y-109785713D02*
X74142914Y-109738094D01*
X74142914Y-109738094D02*
X74047676Y-109690475D01*
X74047676Y-109690475D02*
X73952438Y-109595237D01*
X73952438Y-109595237D02*
X73904819Y-109452380D01*
X73904819Y-109452380D02*
X73904819Y-109357142D01*
X73904819Y-109357142D02*
X73952438Y-109214285D01*
X73952438Y-109214285D02*
X74000057Y-109166666D01*
X73904819Y-108833332D02*
X73904819Y-108214285D01*
X73904819Y-108214285D02*
X74285771Y-108547618D01*
X74285771Y-108547618D02*
X74285771Y-108404761D01*
X74285771Y-108404761D02*
X74333390Y-108309523D01*
X74333390Y-108309523D02*
X74381009Y-108261904D01*
X74381009Y-108261904D02*
X74476247Y-108214285D01*
X74476247Y-108214285D02*
X74714342Y-108214285D01*
X74714342Y-108214285D02*
X74809580Y-108261904D01*
X74809580Y-108261904D02*
X74857200Y-108309523D01*
X74857200Y-108309523D02*
X74904819Y-108404761D01*
X74904819Y-108404761D02*
X74904819Y-108690475D01*
X74904819Y-108690475D02*
X74857200Y-108785713D01*
X74857200Y-108785713D02*
X74809580Y-108833332D01*
X113866667Y-53414700D02*
X114009524Y-53462319D01*
X114009524Y-53462319D02*
X114247619Y-53462319D01*
X114247619Y-53462319D02*
X114342857Y-53414700D01*
X114342857Y-53414700D02*
X114390476Y-53367080D01*
X114390476Y-53367080D02*
X114438095Y-53271842D01*
X114438095Y-53271842D02*
X114438095Y-53176604D01*
X114438095Y-53176604D02*
X114390476Y-53081366D01*
X114390476Y-53081366D02*
X114342857Y-53033747D01*
X114342857Y-53033747D02*
X114247619Y-52986128D01*
X114247619Y-52986128D02*
X114057143Y-52938509D01*
X114057143Y-52938509D02*
X113961905Y-52890890D01*
X113961905Y-52890890D02*
X113914286Y-52843271D01*
X113914286Y-52843271D02*
X113866667Y-52748033D01*
X113866667Y-52748033D02*
X113866667Y-52652795D01*
X113866667Y-52652795D02*
X113914286Y-52557557D01*
X113914286Y-52557557D02*
X113961905Y-52509938D01*
X113961905Y-52509938D02*
X114057143Y-52462319D01*
X114057143Y-52462319D02*
X114295238Y-52462319D01*
X114295238Y-52462319D02*
X114438095Y-52509938D01*
X114771429Y-52462319D02*
X115009524Y-53462319D01*
X115009524Y-53462319D02*
X115200000Y-52748033D01*
X115200000Y-52748033D02*
X115390476Y-53462319D01*
X115390476Y-53462319D02*
X115628572Y-52462319D01*
X115961905Y-52557557D02*
X116009524Y-52509938D01*
X116009524Y-52509938D02*
X116104762Y-52462319D01*
X116104762Y-52462319D02*
X116342857Y-52462319D01*
X116342857Y-52462319D02*
X116438095Y-52509938D01*
X116438095Y-52509938D02*
X116485714Y-52557557D01*
X116485714Y-52557557D02*
X116533333Y-52652795D01*
X116533333Y-52652795D02*
X116533333Y-52748033D01*
X116533333Y-52748033D02*
X116485714Y-52890890D01*
X116485714Y-52890890D02*
X115914286Y-53462319D01*
X115914286Y-53462319D02*
X116533333Y-53462319D01*
X138382142Y-122284819D02*
X138048809Y-121808628D01*
X137810714Y-122284819D02*
X137810714Y-121284819D01*
X137810714Y-121284819D02*
X138191666Y-121284819D01*
X138191666Y-121284819D02*
X138286904Y-121332438D01*
X138286904Y-121332438D02*
X138334523Y-121380057D01*
X138334523Y-121380057D02*
X138382142Y-121475295D01*
X138382142Y-121475295D02*
X138382142Y-121618152D01*
X138382142Y-121618152D02*
X138334523Y-121713390D01*
X138334523Y-121713390D02*
X138286904Y-121761009D01*
X138286904Y-121761009D02*
X138191666Y-121808628D01*
X138191666Y-121808628D02*
X137810714Y-121808628D01*
X139334523Y-122284819D02*
X138763095Y-122284819D01*
X139048809Y-122284819D02*
X139048809Y-121284819D01*
X139048809Y-121284819D02*
X138953571Y-121427676D01*
X138953571Y-121427676D02*
X138858333Y-121522914D01*
X138858333Y-121522914D02*
X138763095Y-121570533D01*
X140286904Y-122284819D02*
X139715476Y-122284819D01*
X140001190Y-122284819D02*
X140001190Y-121284819D01*
X140001190Y-121284819D02*
X139905952Y-121427676D01*
X139905952Y-121427676D02*
X139810714Y-121522914D01*
X139810714Y-121522914D02*
X139715476Y-121570533D01*
X81454819Y-146874404D02*
X82264342Y-146874404D01*
X82264342Y-146874404D02*
X82359580Y-146826785D01*
X82359580Y-146826785D02*
X82407200Y-146779166D01*
X82407200Y-146779166D02*
X82454819Y-146683928D01*
X82454819Y-146683928D02*
X82454819Y-146493452D01*
X82454819Y-146493452D02*
X82407200Y-146398214D01*
X82407200Y-146398214D02*
X82359580Y-146350595D01*
X82359580Y-146350595D02*
X82264342Y-146302976D01*
X82264342Y-146302976D02*
X81454819Y-146302976D01*
X81454819Y-145350595D02*
X81454819Y-145826785D01*
X81454819Y-145826785D02*
X81931009Y-145874404D01*
X81931009Y-145874404D02*
X81883390Y-145826785D01*
X81883390Y-145826785D02*
X81835771Y-145731547D01*
X81835771Y-145731547D02*
X81835771Y-145493452D01*
X81835771Y-145493452D02*
X81883390Y-145398214D01*
X81883390Y-145398214D02*
X81931009Y-145350595D01*
X81931009Y-145350595D02*
X82026247Y-145302976D01*
X82026247Y-145302976D02*
X82264342Y-145302976D01*
X82264342Y-145302976D02*
X82359580Y-145350595D01*
X82359580Y-145350595D02*
X82407200Y-145398214D01*
X82407200Y-145398214D02*
X82454819Y-145493452D01*
X82454819Y-145493452D02*
X82454819Y-145731547D01*
X82454819Y-145731547D02*
X82407200Y-145826785D01*
X82407200Y-145826785D02*
X82359580Y-145874404D01*
X75724819Y-141366666D02*
X75248628Y-141699999D01*
X75724819Y-141938094D02*
X74724819Y-141938094D01*
X74724819Y-141938094D02*
X74724819Y-141557142D01*
X74724819Y-141557142D02*
X74772438Y-141461904D01*
X74772438Y-141461904D02*
X74820057Y-141414285D01*
X74820057Y-141414285D02*
X74915295Y-141366666D01*
X74915295Y-141366666D02*
X75058152Y-141366666D01*
X75058152Y-141366666D02*
X75153390Y-141414285D01*
X75153390Y-141414285D02*
X75201009Y-141461904D01*
X75201009Y-141461904D02*
X75248628Y-141557142D01*
X75248628Y-141557142D02*
X75248628Y-141938094D01*
X74820057Y-140985713D02*
X74772438Y-140938094D01*
X74772438Y-140938094D02*
X74724819Y-140842856D01*
X74724819Y-140842856D02*
X74724819Y-140604761D01*
X74724819Y-140604761D02*
X74772438Y-140509523D01*
X74772438Y-140509523D02*
X74820057Y-140461904D01*
X74820057Y-140461904D02*
X74915295Y-140414285D01*
X74915295Y-140414285D02*
X75010533Y-140414285D01*
X75010533Y-140414285D02*
X75153390Y-140461904D01*
X75153390Y-140461904D02*
X75724819Y-141033332D01*
X75724819Y-141033332D02*
X75724819Y-140414285D01*
X138507142Y-125674819D02*
X138173809Y-125198628D01*
X137935714Y-125674819D02*
X137935714Y-124674819D01*
X137935714Y-124674819D02*
X138316666Y-124674819D01*
X138316666Y-124674819D02*
X138411904Y-124722438D01*
X138411904Y-124722438D02*
X138459523Y-124770057D01*
X138459523Y-124770057D02*
X138507142Y-124865295D01*
X138507142Y-124865295D02*
X138507142Y-125008152D01*
X138507142Y-125008152D02*
X138459523Y-125103390D01*
X138459523Y-125103390D02*
X138411904Y-125151009D01*
X138411904Y-125151009D02*
X138316666Y-125198628D01*
X138316666Y-125198628D02*
X137935714Y-125198628D01*
X139459523Y-125674819D02*
X138888095Y-125674819D01*
X139173809Y-125674819D02*
X139173809Y-124674819D01*
X139173809Y-124674819D02*
X139078571Y-124817676D01*
X139078571Y-124817676D02*
X138983333Y-124912914D01*
X138983333Y-124912914D02*
X138888095Y-124960533D01*
X140030952Y-125103390D02*
X139935714Y-125055771D01*
X139935714Y-125055771D02*
X139888095Y-125008152D01*
X139888095Y-125008152D02*
X139840476Y-124912914D01*
X139840476Y-124912914D02*
X139840476Y-124865295D01*
X139840476Y-124865295D02*
X139888095Y-124770057D01*
X139888095Y-124770057D02*
X139935714Y-124722438D01*
X139935714Y-124722438D02*
X140030952Y-124674819D01*
X140030952Y-124674819D02*
X140221428Y-124674819D01*
X140221428Y-124674819D02*
X140316666Y-124722438D01*
X140316666Y-124722438D02*
X140364285Y-124770057D01*
X140364285Y-124770057D02*
X140411904Y-124865295D01*
X140411904Y-124865295D02*
X140411904Y-124912914D01*
X140411904Y-124912914D02*
X140364285Y-125008152D01*
X140364285Y-125008152D02*
X140316666Y-125055771D01*
X140316666Y-125055771D02*
X140221428Y-125103390D01*
X140221428Y-125103390D02*
X140030952Y-125103390D01*
X140030952Y-125103390D02*
X139935714Y-125151009D01*
X139935714Y-125151009D02*
X139888095Y-125198628D01*
X139888095Y-125198628D02*
X139840476Y-125293866D01*
X139840476Y-125293866D02*
X139840476Y-125484342D01*
X139840476Y-125484342D02*
X139888095Y-125579580D01*
X139888095Y-125579580D02*
X139935714Y-125627200D01*
X139935714Y-125627200D02*
X140030952Y-125674819D01*
X140030952Y-125674819D02*
X140221428Y-125674819D01*
X140221428Y-125674819D02*
X140316666Y-125627200D01*
X140316666Y-125627200D02*
X140364285Y-125579580D01*
X140364285Y-125579580D02*
X140411904Y-125484342D01*
X140411904Y-125484342D02*
X140411904Y-125293866D01*
X140411904Y-125293866D02*
X140364285Y-125198628D01*
X140364285Y-125198628D02*
X140316666Y-125151009D01*
X140316666Y-125151009D02*
X140221428Y-125103390D01*
X135904819Y-106125594D02*
X134904819Y-106125594D01*
X134904819Y-106125594D02*
X134904819Y-105887499D01*
X134904819Y-105887499D02*
X134952438Y-105744642D01*
X134952438Y-105744642D02*
X135047676Y-105649404D01*
X135047676Y-105649404D02*
X135142914Y-105601785D01*
X135142914Y-105601785D02*
X135333390Y-105554166D01*
X135333390Y-105554166D02*
X135476247Y-105554166D01*
X135476247Y-105554166D02*
X135666723Y-105601785D01*
X135666723Y-105601785D02*
X135761961Y-105649404D01*
X135761961Y-105649404D02*
X135857200Y-105744642D01*
X135857200Y-105744642D02*
X135904819Y-105887499D01*
X135904819Y-105887499D02*
X135904819Y-106125594D01*
X135000057Y-105173213D02*
X134952438Y-105125594D01*
X134952438Y-105125594D02*
X134904819Y-105030356D01*
X134904819Y-105030356D02*
X134904819Y-104792261D01*
X134904819Y-104792261D02*
X134952438Y-104697023D01*
X134952438Y-104697023D02*
X135000057Y-104649404D01*
X135000057Y-104649404D02*
X135095295Y-104601785D01*
X135095295Y-104601785D02*
X135190533Y-104601785D01*
X135190533Y-104601785D02*
X135333390Y-104649404D01*
X135333390Y-104649404D02*
X135904819Y-105220832D01*
X135904819Y-105220832D02*
X135904819Y-104601785D01*
D11*
%TO.C,J4*%
X143330000Y-106725000D02*
X145650000Y-106725000D01*
X143330000Y-106835000D02*
X143330000Y-108105000D01*
X143330000Y-106835000D02*
X143330000Y-108105000D01*
X143330000Y-109375000D02*
X143330000Y-110755000D01*
X143330000Y-110645000D02*
X143330000Y-110755000D01*
X143330000Y-110755000D02*
X145650000Y-110755000D01*
X145650000Y-106725000D02*
X145650000Y-106835000D01*
X145650000Y-106835000D02*
X147430000Y-106835000D01*
X145650000Y-108105000D02*
X145650000Y-109375000D01*
D12*
%TO.C,J3*%
X146262500Y-68070000D02*
G75*
G02*
X146202500Y-68070000I-30000J0D01*
G01*
X146202500Y-68070000D02*
G75*
G02*
X146262500Y-68070000I30000J0D01*
G01*
D13*
%TO.C,J2*%
X93000000Y-61250000D02*
X120200000Y-61250000D01*
X93000000Y-89050000D02*
X93000000Y-61250000D01*
X100250000Y-85300000D02*
X100250000Y-89050000D01*
X100250000Y-89050000D02*
X93000000Y-89050000D01*
X113100000Y-85300000D02*
X100250000Y-85300000D01*
X113100000Y-89050000D02*
X113100000Y-85300000D01*
X120200000Y-61250000D02*
X120200000Y-89050000D01*
X120200000Y-89050000D02*
X113100000Y-89050000D01*
D12*
X93030000Y-88290000D02*
G75*
G02*
X92970000Y-88290000I-30000J0D01*
G01*
X92970000Y-88290000D02*
G75*
G02*
X93030000Y-88290000I30000J0D01*
G01*
D11*
%TO.C,R9*%
X121777500Y-100912258D02*
X121777500Y-100437742D01*
X122822500Y-100912258D02*
X122822500Y-100437742D01*
%TO.C,R19*%
X122312742Y-110677500D02*
X122787258Y-110677500D01*
X122312742Y-111722500D02*
X122787258Y-111722500D01*
%TO.C,R15*%
X106977500Y-124062258D02*
X106977500Y-123587742D01*
X108022500Y-124062258D02*
X108022500Y-123587742D01*
%TO.C,D1*%
X69040000Y-116140000D02*
X70040000Y-116140000D01*
X69040000Y-117660000D02*
X69040000Y-116140000D01*
X69090000Y-117660000D02*
X69040000Y-117660000D01*
X70990000Y-117660000D02*
X70210000Y-117660000D01*
X71160000Y-116140000D02*
X72160000Y-116140000D01*
X72160000Y-116140000D02*
X72160000Y-117660000D01*
X72160000Y-117660000D02*
X72110000Y-117660000D01*
X70550000Y-118440000D02*
X70220000Y-118200000D01*
X70550000Y-117960000D01*
X70550000Y-118440000D01*
G36*
X70550000Y-118440000D02*
G01*
X70220000Y-118200000D01*
X70550000Y-117960000D01*
X70550000Y-118440000D01*
G37*
%TO.C,C19*%
X108392164Y-104490000D02*
X108607836Y-104490000D01*
X108392164Y-105210000D02*
X108607836Y-105210000D01*
%TO.C,C11*%
X113202164Y-115690000D02*
X113417836Y-115690000D01*
X113202164Y-116410000D02*
X113417836Y-116410000D01*
%TO.C,C1*%
X66540000Y-111665580D02*
X66540000Y-111384420D01*
X67560000Y-111665580D02*
X67560000Y-111384420D01*
D12*
%TO.C,SW3*%
X133971250Y-43737500D02*
G75*
G02*
X133911250Y-43737500I-30000J0D01*
G01*
X133911250Y-43737500D02*
G75*
G02*
X133971250Y-43737500I30000J0D01*
G01*
D11*
%TO.C,R7*%
X133737742Y-66277500D02*
X134212258Y-66277500D01*
X133737742Y-67322500D02*
X134212258Y-67322500D01*
%TO.C,U1*%
X69752500Y-109940000D02*
X71572500Y-109940000D01*
X69752500Y-109990000D02*
X69752500Y-109940000D01*
X69752500Y-113060000D02*
X69752500Y-113010000D01*
X71572500Y-109940000D02*
X71572500Y-109990000D01*
X71572500Y-111110000D02*
X71572500Y-111890000D01*
X71572500Y-113010000D02*
X71572500Y-113060000D01*
X71572500Y-113060000D02*
X69752500Y-113060000D01*
X69212500Y-109990000D02*
X68972500Y-109660000D01*
X69452500Y-109660000D01*
X69212500Y-109990000D01*
G36*
X69212500Y-109990000D02*
G01*
X68972500Y-109660000D01*
X69452500Y-109660000D01*
X69212500Y-109990000D01*
G37*
D13*
%TO.C,L1*%
X108620000Y-100850000D02*
X108080000Y-100850000D01*
X108620000Y-102450000D02*
X108080000Y-102450000D01*
X107580000Y-102750000D02*
G75*
G02*
X107320000Y-102750000I-130000J0D01*
G01*
X107320000Y-102750000D02*
G75*
G02*
X107580000Y-102750000I130000J0D01*
G01*
D12*
X109380000Y-100850000D02*
G75*
G02*
X109320000Y-100850000I-30000J0D01*
G01*
X109320000Y-100850000D02*
G75*
G02*
X109380000Y-100850000I30000J0D01*
G01*
D11*
%TO.C,Q1*%
X138452500Y-145190000D02*
X139972500Y-145190000D01*
X138452500Y-146190000D02*
X138452500Y-145190000D01*
X138452500Y-148310000D02*
X138452500Y-147310000D01*
X139972500Y-145190000D02*
X139972500Y-145240000D01*
X139972500Y-146360000D02*
X139972500Y-147140000D01*
X139972500Y-148260000D02*
X139972500Y-148310000D01*
X139972500Y-148310000D02*
X138452500Y-148310000D01*
X140512500Y-147130000D02*
X140272500Y-146800000D01*
X140752500Y-146800000D01*
X140512500Y-147130000D01*
G36*
X140512500Y-147130000D02*
G01*
X140272500Y-146800000D01*
X140752500Y-146800000D01*
X140512500Y-147130000D01*
G37*
%TO.C,C10*%
X104290000Y-120408039D02*
X104290000Y-120623711D01*
X105010000Y-120408039D02*
X105010000Y-120623711D01*
%TO.C,R22*%
X105777500Y-98887258D02*
X105777500Y-98412742D01*
X106822500Y-98887258D02*
X106822500Y-98412742D01*
%TO.C,C7*%
X97607836Y-108540000D02*
X97392164Y-108540000D01*
X97607836Y-109260000D02*
X97392164Y-109260000D01*
%TO.C,R6*%
X104812258Y-55477500D02*
X104337742Y-55477500D01*
X104812258Y-56522500D02*
X104337742Y-56522500D01*
%TO.C,C12*%
X113214938Y-112022767D02*
X113430610Y-112022767D01*
X113214938Y-112742767D02*
X113430610Y-112742767D01*
%TO.C,C5*%
X108365580Y-125540000D02*
X108084420Y-125540000D01*
X108365580Y-126560000D02*
X108084420Y-126560000D01*
%TO.C,R16*%
X130087258Y-125702500D02*
X129612742Y-125702500D01*
X130087258Y-126747500D02*
X129612742Y-126747500D01*
%TO.C,REF\u002A\u002A*%
X82100000Y-157500000D02*
X83500000Y-157500000D01*
X82100000Y-158900000D02*
X82100000Y-157500000D01*
X83500000Y-157500000D02*
X83500000Y-158900000D01*
X83500000Y-158900000D02*
X82100000Y-158900000D01*
%TO.C,C22*%
X105840000Y-120242164D02*
X105840000Y-120457836D01*
X106560000Y-120242164D02*
X106560000Y-120457836D01*
%TO.C,C16*%
X104507702Y-104506777D02*
X104507702Y-104291105D01*
X105227702Y-104506777D02*
X105227702Y-104291105D01*
%TO.C,D4*%
X125240000Y-117702500D02*
X126240000Y-117702500D01*
X125240000Y-119222500D02*
X125240000Y-117702500D01*
X125290000Y-119222500D02*
X125240000Y-119222500D01*
X127190000Y-119222500D02*
X126410000Y-119222500D01*
X127360000Y-117702500D02*
X128360000Y-117702500D01*
X128360000Y-117702500D02*
X128360000Y-119222500D01*
X128360000Y-119222500D02*
X128310000Y-119222500D01*
X126750000Y-120002500D02*
X126420000Y-119762500D01*
X126750000Y-119522500D01*
X126750000Y-120002500D01*
G36*
X126750000Y-120002500D02*
G01*
X126420000Y-119762500D01*
X126750000Y-119522500D01*
X126750000Y-120002500D01*
G37*
%TO.C,C18*%
X111290000Y-104392164D02*
X111290000Y-104607836D01*
X112010000Y-104392164D02*
X112010000Y-104607836D01*
%TO.C,C21*%
X97677836Y-111240000D02*
X97462164Y-111240000D01*
X97677836Y-111960000D02*
X97462164Y-111960000D01*
D12*
%TO.C,SW1*%
X84280000Y-43770000D02*
G75*
G02*
X84220000Y-43770000I-30000J0D01*
G01*
X84220000Y-43770000D02*
G75*
G02*
X84280000Y-43770000I30000J0D01*
G01*
D11*
%TO.C,U4*%
X113215000Y-148272500D02*
X113215000Y-143652500D01*
X119985000Y-143652500D02*
X119985000Y-148272500D01*
X113910000Y-150152500D02*
X113430000Y-150152500D01*
X113670000Y-149822500D01*
X113910000Y-150152500D01*
G36*
X113910000Y-150152500D02*
G01*
X113430000Y-150152500D01*
X113670000Y-149822500D01*
X113910000Y-150152500D01*
G37*
%TO.C,R1*%
X78487742Y-99527500D02*
X78962258Y-99527500D01*
X78487742Y-100572500D02*
X78962258Y-100572500D01*
%TO.C,LED1*%
X135327500Y-77465000D02*
X135327500Y-78935000D01*
X135327500Y-78935000D02*
X137612500Y-78935000D01*
X137612500Y-77465000D02*
X135327500Y-77465000D01*
%TO.C,R17*%
X73277500Y-146212742D02*
X73277500Y-146687258D01*
X74322500Y-146212742D02*
X74322500Y-146687258D01*
%TO.C,C20*%
X108422164Y-103470000D02*
X108637836Y-103470000D01*
X108422164Y-104190000D02*
X108637836Y-104190000D01*
%TO.C,R4*%
X117612258Y-113177500D02*
X117137742Y-113177500D01*
X117612258Y-114222500D02*
X117137742Y-114222500D01*
%TO.C,R20*%
X104262041Y-98889929D02*
X104262041Y-98415413D01*
X105307041Y-98889929D02*
X105307041Y-98415413D01*
%TO.C,R23*%
X139127500Y-152462258D02*
X139127500Y-151987742D01*
X140172500Y-152462258D02*
X140172500Y-151987742D01*
%TO.C,C6*%
X78584420Y-95140000D02*
X78865580Y-95140000D01*
X78584420Y-96160000D02*
X78865580Y-96160000D01*
%TO.C,C15*%
X105490000Y-104507836D02*
X105490000Y-104292164D01*
X106210000Y-104507836D02*
X106210000Y-104292164D01*
%TO.C,C9*%
X102290000Y-120422164D02*
X102290000Y-120637836D01*
X103010000Y-120422164D02*
X103010000Y-120637836D01*
%TO.C,R10*%
X70177500Y-141412258D02*
X70177500Y-140937742D01*
X71222500Y-141412258D02*
X71222500Y-140937742D01*
%TO.C,U6*%
X128415000Y-148372500D02*
X128415000Y-143752500D01*
X135185000Y-143752500D02*
X135185000Y-148372500D01*
X129110000Y-150252500D02*
X128630000Y-150252500D01*
X128870000Y-149922500D01*
X129110000Y-150252500D01*
G36*
X129110000Y-150252500D02*
G01*
X128630000Y-150252500D01*
X128870000Y-149922500D01*
X129110000Y-150252500D01*
G37*
%TO.C,R12*%
X78677500Y-146662258D02*
X78677500Y-146187742D01*
X79722500Y-146662258D02*
X79722500Y-146187742D01*
%TO.C,R5*%
X109637742Y-55477500D02*
X110112258Y-55477500D01*
X109637742Y-56522500D02*
X110112258Y-56522500D01*
%TO.C,C14*%
X102740000Y-104507836D02*
X102740000Y-104292164D01*
X103460000Y-104507836D02*
X103460000Y-104292164D01*
%TO.C,R8*%
X133737742Y-60277500D02*
X134212258Y-60277500D01*
X133737742Y-61322500D02*
X134212258Y-61322500D01*
%TO.C,U3*%
X98015000Y-148322500D02*
X98015000Y-143702500D01*
X104785000Y-143702500D02*
X104785000Y-148322500D01*
X98710000Y-150202500D02*
X98230000Y-150202500D01*
X98470000Y-149872500D01*
X98710000Y-150202500D01*
G36*
X98710000Y-150202500D02*
G01*
X98230000Y-150202500D01*
X98470000Y-149872500D01*
X98710000Y-150202500D01*
G37*
%TO.C,R3*%
X142927500Y-146462742D02*
X142927500Y-146937258D01*
X143972500Y-146462742D02*
X143972500Y-146937258D01*
%TO.C,U2*%
X100275000Y-107250000D02*
X100275000Y-107015000D01*
X100275000Y-117075000D02*
X100275000Y-116125000D01*
X100750000Y-106775000D02*
X100575000Y-106775000D01*
X101225000Y-117075000D02*
X100275000Y-117075000D01*
X109625000Y-106775000D02*
X110575000Y-106775000D01*
X109625000Y-117075000D02*
X110575000Y-117075000D01*
X110575000Y-106775000D02*
X110575000Y-107725000D01*
X110575000Y-117075000D02*
X110575000Y-116125000D01*
X100275000Y-106775000D02*
X100035000Y-106445000D01*
X100515000Y-106445000D01*
X100275000Y-106775000D01*
G36*
X100275000Y-106775000D02*
G01*
X100035000Y-106445000D01*
X100515000Y-106445000D01*
X100275000Y-106775000D01*
G37*
%TO.C,C23*%
X113222164Y-111040000D02*
X113437836Y-111040000D01*
X113222164Y-111760000D02*
X113437836Y-111760000D01*
%TO.C,R13*%
X122787258Y-114027500D02*
X122312742Y-114027500D01*
X122787258Y-115072500D02*
X122312742Y-115072500D01*
%TO.C,Y1*%
X103340000Y-128090000D02*
X103340000Y-131510000D01*
X103340000Y-131510000D02*
X107460000Y-131510000D01*
%TO.C,R21*%
X127237742Y-111477500D02*
X127712258Y-111477500D01*
X127237742Y-112522500D02*
X127712258Y-112522500D01*
%TO.C,C8*%
X97677836Y-113190000D02*
X97462164Y-113190000D01*
X97677836Y-113910000D02*
X97462164Y-113910000D01*
%TO.C,C2*%
X75740000Y-111359420D02*
X75740000Y-111640580D01*
X76760000Y-111359420D02*
X76760000Y-111640580D01*
%TO.C,D3*%
X125677500Y-104740000D02*
X125727500Y-104740000D01*
X125677500Y-106260000D02*
X125677500Y-104740000D01*
X126677500Y-106260000D02*
X125677500Y-106260000D01*
X126847500Y-104740000D02*
X127627500Y-104740000D01*
X128747500Y-104740000D02*
X128797500Y-104740000D01*
X128797500Y-104740000D02*
X128797500Y-106260000D01*
X128797500Y-106260000D02*
X127797500Y-106260000D01*
X127617500Y-104200000D02*
X127287500Y-104440000D01*
X127287500Y-103960000D01*
X127617500Y-104200000D01*
G36*
X127617500Y-104200000D02*
G01*
X127287500Y-104440000D01*
X127287500Y-103960000D01*
X127617500Y-104200000D01*
G37*
%TO.C,C4*%
X101959420Y-125540000D02*
X102240580Y-125540000D01*
X101959420Y-126560000D02*
X102240580Y-126560000D01*
%TO.C,C13*%
X112833664Y-106740000D02*
X113049336Y-106740000D01*
X112833664Y-107460000D02*
X113049336Y-107460000D01*
%TO.C,R14*%
X111127500Y-101712742D02*
X111127500Y-102187258D01*
X112172500Y-101712742D02*
X112172500Y-102187258D01*
D12*
%TO.C,SW4*%
X148012500Y-43737500D02*
G75*
G02*
X147952500Y-43737500I-30000J0D01*
G01*
X147952500Y-43737500D02*
G75*
G02*
X148012500Y-43737500I30000J0D01*
G01*
D11*
%TO.C,R24*%
X114087742Y-105277500D02*
X114562258Y-105277500D01*
X114087742Y-106322500D02*
X114562258Y-106322500D01*
%TO.C,C3*%
X73840000Y-111334420D02*
X73840000Y-111615580D01*
X74860000Y-111334420D02*
X74860000Y-111615580D01*
D12*
%TO.C,SW2*%
X119930000Y-43737500D02*
G75*
G02*
X119870000Y-43737500I-30000J0D01*
G01*
X119870000Y-43737500D02*
G75*
G02*
X119930000Y-43737500I30000J0D01*
G01*
D11*
%TO.C,R11*%
X139262258Y-119877500D02*
X138787742Y-119877500D01*
X139262258Y-120922500D02*
X138787742Y-120922500D01*
%TO.C,REF\u002A\u002A*%
X82100000Y-155500000D02*
X83500000Y-155500000D01*
X82100000Y-156900000D02*
X82100000Y-155500000D01*
X83500000Y-155500000D02*
X83500000Y-156900000D01*
X83500000Y-156900000D02*
X82100000Y-156900000D01*
%TO.C,U5*%
X82815000Y-148422500D02*
X82815000Y-143802500D01*
X89585000Y-143802500D02*
X89585000Y-148422500D01*
X83510000Y-150302500D02*
X83030000Y-150302500D01*
X83270000Y-149972500D01*
X83510000Y-150302500D01*
G36*
X83510000Y-150302500D02*
G01*
X83030000Y-150302500D01*
X83270000Y-149972500D01*
X83510000Y-150302500D01*
G37*
%TO.C,C24*%
X112831028Y-107725605D02*
X113046700Y-107725605D01*
X112831028Y-108445605D02*
X113046700Y-108445605D01*
%TO.C,R2*%
X76177500Y-141437258D02*
X76177500Y-140962742D01*
X77222500Y-141437258D02*
X77222500Y-140962742D01*
%TO.C,R18*%
X138912742Y-126127500D02*
X139387258Y-126127500D01*
X138912742Y-127172500D02*
X139387258Y-127172500D01*
%TO.C,D2*%
X131490000Y-104627500D02*
X131540000Y-104627500D01*
X131490000Y-106147500D02*
X131490000Y-104627500D01*
X132490000Y-106147500D02*
X131490000Y-106147500D01*
X132660000Y-104627500D02*
X133440000Y-104627500D01*
X134560000Y-104627500D02*
X134610000Y-104627500D01*
X134610000Y-104627500D02*
X134610000Y-106147500D01*
X134610000Y-106147500D02*
X133610000Y-106147500D01*
X133430000Y-104087500D02*
X133100000Y-104327500D01*
X133100000Y-103847500D01*
X133430000Y-104087500D01*
G36*
X133430000Y-104087500D02*
G01*
X133100000Y-104327500D01*
X133100000Y-103847500D01*
X133430000Y-104087500D01*
G37*
%TD*%
M02*
